<svg width="720" height="720" viewBox="0 0 720 720" fill="none" xmlns="http://www.w3.org/2000/svg">
<mask id="mask0_821_6821" style="mask-type:alpha" maskUnits="userSpaceOnUse" x="0" y="0" width="720" height="720">
<rect width="720" height="720" fill="#D9D9D9"/>
</mask>
<g mask="url(#mask0_821_6821)">
<rect width="720" height="720" fill="white"/>
<g opacity="0.2" filter="url(#filter0_f_821_6821)">
<path d="M394.422 597.645L118 433.088L206.015 379.86L482.435 544.408L394.422 597.645Z" fill="#010101"/>
</g>
<path d="M479.078 309.888C479.074 309.853 479.071 309.82 479.065 309.786C479.04 309.623 478.987 309.467 478.909 309.322C478.904 309.314 478.905 309.305 478.9 309.297L463.702 282.894C463.701 282.891 463.698 282.89 463.697 282.887C463.634 282.779 463.558 282.68 463.47 282.592C463.41 282.537 463.345 282.487 463.277 282.443C463.241 282.418 463.211 282.385 463.173 282.363L200.418 130.133C200.198 130.006 199.949 129.939 199.696 129.939H163.553C163.288 129.939 163.027 130.013 162.8 130.152C162.573 130.291 162.389 130.49 162.268 130.727C162.146 130.964 162.092 131.231 162.112 131.497C162.132 131.763 162.224 132.018 162.379 132.235L174.528 149.235L162.929 155.953C162.709 156.08 162.527 156.263 162.4 156.484C162.273 156.704 162.206 156.954 162.206 157.209V177.205C162.207 177.459 162.273 177.709 162.4 177.93C162.527 178.15 162.709 178.333 162.929 178.46C163.149 178.587 163.398 178.654 163.651 178.655C163.905 178.655 164.154 178.588 164.374 178.461L176.351 171.521V191.926C176.351 192.116 176.388 192.305 176.461 192.481C176.533 192.657 176.64 192.817 176.774 192.951C176.908 193.086 177.067 193.193 177.243 193.266C177.418 193.339 177.606 193.376 177.796 193.376H184.001V408.813C184.001 409.067 184.068 409.317 184.195 409.538C184.322 409.758 184.504 409.941 184.724 410.069L437.417 556.462C437.637 556.589 437.886 556.656 438.139 556.656C438.392 556.656 438.641 556.589 438.861 556.462L454.044 547.678C454.046 547.677 454.048 547.677 454.049 547.676L478.371 533.582C478.591 533.454 478.773 533.271 478.9 533.051C479.027 532.83 479.094 532.58 479.094 532.326V310.022C479.094 309.976 479.082 309.933 479.078 309.888Z" fill="#231F20"/>
<path d="M180.206 167.613L163.652 177.204V157.208L180.202 147.623L180.206 167.613Z" fill="#151517"/>
<path d="M477.649 532.327L453.326 546.42L445.947 320.699L477.649 310.022V532.327Z" fill="#0B0D1B"/>
<path d="M477.649 310.022L453.327 324.115L418.705 297.71L462.45 283.619L477.649 310.022Z" fill="#1A1E42"/>
<path d="M177.796 151.319H185.446L438.139 297.71L462.45 283.62L199.696 131.39H163.554L177.796 151.319Z" fill="#DED9D9"/>
<path d="M177.796 193.376C177.606 193.376 177.418 193.339 177.243 193.266C177.067 193.193 176.908 193.087 176.774 192.952C176.64 192.817 176.533 192.657 176.461 192.481C176.388 192.306 176.351 192.117 176.351 191.927L177.671 151.436C176.435 150.695 176.998 149.869 177.796 149.869H185.446C185.817 149.869 186.173 150.012 186.441 150.268C186.71 150.523 186.87 150.873 186.889 151.244L188.967 191.851C188.977 192.048 188.947 192.244 188.879 192.429C188.811 192.613 188.707 192.782 188.572 192.925C188.437 193.067 188.274 193.181 188.094 193.259C187.914 193.336 187.72 193.376 187.524 193.376H177.796Z" fill="#020202"/>
<path d="M187.524 191.926L176.351 191.926L177.64 151.318H185.446L187.524 191.926Z" fill="#1A2328"/>
<path d="M438.14 556.656C437.886 556.656 437.637 556.589 437.417 556.462L184.724 410.069C184.504 409.942 184.322 409.759 184.195 409.538C184.068 409.318 184.001 409.068 184.001 408.813V151.319C184.002 151.065 184.068 150.815 184.195 150.594C184.322 150.374 184.504 150.191 184.724 150.064C184.944 149.936 185.193 149.869 185.446 149.869C185.7 149.869 185.949 149.936 186.169 150.063L438.862 296.455C439.082 296.582 439.265 296.765 439.391 296.986L454.578 323.391C454.705 323.612 454.772 323.862 454.772 324.116V546.42C454.772 546.675 454.705 546.925 454.578 547.146C454.451 547.366 454.268 547.549 454.048 547.676L438.861 556.462C438.642 556.589 438.393 556.656 438.14 556.656Z" fill="#020202"/>
<path d="M184.001 151.318V408.812L438.14 555.206L453.326 546.419V324.115L438.14 297.71L184.001 151.318Z" fill="#D8D3D1"/>
<path d="M323.928 181.785C323.894 181.58 323.841 181.379 323.769 181.184C323.761 181.168 323.762 181.15 323.753 181.135L290.421 123.198C290.411 123.181 290.396 123.169 290.386 123.152C290.37 123.128 290.351 123.109 290.335 123.086C290.22 122.921 290.072 122.781 289.9 122.676C289.896 122.674 289.895 122.669 289.891 122.667L242.764 95.4118C242.544 95.2847 242.295 95.2178 242.042 95.2178C241.789 95.2178 241.54 95.2847 241.32 95.4118L225.427 104.609L225.425 104.61L192.149 123.899C191.929 124.026 191.746 124.209 191.62 124.43C191.493 124.65 191.426 124.9 191.426 125.155L191.404 179.722C191.404 179.976 191.47 180.226 191.597 180.447L224.929 238.387C225.056 238.608 225.239 238.791 225.46 238.918L272.514 266.101C272.733 266.228 272.982 266.295 273.235 266.295C273.489 266.295 273.737 266.228 273.957 266.101L307.251 246.832L307.254 246.831L323.148 237.626C323.368 237.499 323.55 237.316 323.677 237.096C323.804 236.876 323.87 236.626 323.871 236.372L323.946 181.861C323.946 181.835 323.93 181.812 323.928 181.785Z" fill="#231F20"/>
<path d="M322.501 181.86L322.426 236.371L306.531 245.575L292.824 190.215L322.501 181.86Z" fill="#F9C166"/>
<path d="M289.169 123.923L242.042 96.668L226.148 105.866L268.254 143.768L289.169 123.923Z" fill="#F9C166"/>
<path d="M289.169 123.924L322.501 181.861L306.582 191.086L280.949 169.551L273.247 133.143L289.169 123.924Z" fill="#FDB45C"/>
<path d="M192.871 125.154L192.848 179.723L226.181 237.662L273.235 264.845L306.531 245.575L306.582 191.086L273.247 133.143L226.148 105.866L192.871 125.154Z" fill="#FBD9A2"/>
<path d="M202.125 178.078L232.231 230.403L274.853 255.088L301.14 239.861L301.186 190.466L271.069 138.126L228.437 113.432L202.117 128.674L202.125 178.078Z" fill="#F9C166"/>
<path d="M198.201 130.948L202.117 128.674L202.124 178.078L232.231 230.403L274.853 255.088L270.936 257.362L228.437 232.61L198.335 180.285L198.201 130.948Z" fill="#FDB45C"/>
<path d="M451.297 308.899C451.286 308.756 451.253 308.616 451.2 308.482C451.184 308.419 451.163 308.357 451.138 308.296C451.129 308.281 451.13 308.263 451.121 308.247L417.783 250.313C417.775 250.299 417.76 250.291 417.751 250.277C417.714 250.228 417.673 250.182 417.63 250.139C417.54 250.023 417.433 249.922 417.313 249.84C417.289 249.824 417.277 249.796 417.252 249.782L370.124 222.527C369.904 222.4 369.655 222.333 369.402 222.333C369.149 222.333 368.9 222.4 368.68 222.527L352.788 231.735L319.504 251.01C319.284 251.137 319.102 251.32 318.975 251.541C318.848 251.761 318.781 252.011 318.781 252.266L318.766 306.834C318.766 307.089 318.833 307.339 318.96 307.559L352.295 365.512C352.422 365.733 352.605 365.917 352.826 366.044L399.871 393.209C400.091 393.335 400.339 393.402 400.592 393.402C400.845 393.401 401.094 393.334 401.313 393.208L434.62 373.949L434.625 373.947L450.509 364.736C450.728 364.609 450.91 364.426 451.037 364.206C451.164 363.986 451.231 363.737 451.231 363.483L451.315 308.975C451.315 308.948 451.298 308.926 451.297 308.899Z" fill="#231F20"/>
<path d="M449.87 308.973L449.786 363.481L433.903 372.691L420.193 317.327L449.87 308.973Z" fill="#F9C166"/>
<path d="M416.532 251.04L369.402 223.784L353.51 232.991L395.62 270.893L416.532 251.04Z" fill="#F9C166"/>
<path d="M416.532 251.039L449.87 308.973L433.948 318.198L408.312 296.663L400.616 260.264L416.532 251.039Z" fill="#FDB45C"/>
<path d="M320.226 252.266L320.211 306.835L353.546 364.786L400.592 391.951L433.903 372.691L433.948 318.198L400.616 260.264L353.51 232.99L320.226 252.266Z" fill="#FBD9A2"/>
<path d="M329.483 305.19L359.603 357.521L402.213 382.209L428.504 366.973L428.537 317.578L398.428 265.247L355.797 240.544L329.477 255.792L329.483 305.19Z" fill="#F9C166"/>
<path d="M325.566 254.054L329.477 251.792L329.483 301.19L359.603 353.521L402.213 378.209L398.302 380.471L355.797 355.716L325.689 303.397L325.566 254.054Z" fill="#FBC788"/>
<path d="M441.391 125.564C441.358 125.361 441.305 125.161 441.233 124.968C441.225 124.953 441.226 124.935 441.217 124.92L407.876 66.9802C407.866 66.9631 407.851 66.9513 407.841 66.9348C407.826 66.9107 407.807 66.892 407.79 66.8687C407.674 66.7002 407.524 66.5585 407.349 66.4529C407.348 66.452 407.347 66.4501 407.345 66.4492L407.341 66.4468L407.331 66.4409L360.219 39.194C359.999 39.0669 359.75 39 359.497 39C359.243 39 358.994 39.0669 358.775 39.194L342.88 48.3975L309.605 67.6825C309.386 67.8098 309.203 67.9928 309.076 68.2133C308.949 68.4338 308.883 68.6839 308.883 68.9384L308.862 123.513C308.862 123.767 308.929 124.017 309.056 124.238L342.388 182.178C342.515 182.399 342.698 182.582 342.919 182.71L389.976 209.875C390.195 210.001 390.444 210.067 390.697 210.067C390.95 210.067 391.198 210 391.418 209.873L424.713 190.611L424.718 190.609L440.601 181.411C440.82 181.284 441.002 181.102 441.128 180.882C441.255 180.662 441.322 180.412 441.323 180.158L441.411 125.648C441.411 125.618 441.393 125.593 441.391 125.564Z" fill="#231F20"/>
<path d="M439.966 125.645L439.878 180.156L423.996 189.354L410.285 134.002L439.966 125.645Z" fill="#F9C166"/>
<path d="M406.625 67.7046L359.497 40.4492L343.603 49.653L385.713 87.5523L406.625 67.7046Z" fill="#F9C166"/>
<path d="M406.625 67.7051L439.966 125.645L424.035 134.867L398.395 113.332L390.703 76.9303L406.625 67.7051Z" fill="#FDB45C"/>
<path d="M310.328 68.9386L310.307 123.513L343.639 181.453L390.697 208.618L423.996 189.354L424.035 134.867L390.702 76.93L343.603 49.6533L310.328 68.9386Z" fill="#FBD9A2"/>
<path d="M319.581 121.861L349.689 174.186L392.312 198.88L418.593 183.644L418.647 134.24L388.518 81.9126L345.89 57.2119L319.569 72.4576L319.581 121.861Z" fill="#F9C166"/>
<path d="M315.661 74.7258L319.569 72.458L319.581 121.862L349.689 174.187L392.311 198.881L388.4 201.14L345.89 176.391L315.788 124.06L315.661 74.7258Z" fill="#FDB45C"/>
<path d="M436.588 334.515C436.584 334.472 436.579 334.432 436.571 334.39C436.546 334.224 436.492 334.064 436.412 333.917L436.411 333.916L421.227 307.51C421.226 307.508 421.224 307.506 421.223 307.504C421.16 307.396 421.083 307.296 420.994 307.207C420.896 307.131 420.797 307.055 420.698 306.979L168.729 161.013V158.248L177.64 151.318C178.16 151.017 163.055 130.003 162.831 130.133L132.167 147.901C131.947 148.028 131.765 148.211 131.638 148.431C131.511 148.652 131.445 148.902 131.445 149.156V427.601C131.445 427.855 131.511 428.105 131.638 428.326C131.765 428.546 131.947 428.729 132.167 428.857L394.934 581.082C395.154 581.209 395.403 581.276 395.656 581.276C395.91 581.276 396.159 581.209 396.379 581.082L411.566 572.282L435.882 558.192C436.102 558.065 436.284 557.882 436.411 557.661C436.538 557.441 436.605 557.191 436.605 556.936V334.641C436.605 334.598 436.592 334.558 436.588 334.515Z" fill="#231F20"/>
<path d="M395.656 322.323L301.532 256.552L132.889 170.093V427.601L395.656 579.826L410.843 571.027V348.72L395.656 322.323Z" fill="#1A1E42"/>
<g clip-path="url(#clip0_821_6821)">
<path d="M243.462 198.901L246.341 153.506L262.683 195.254L243.462 198.901Z" fill="#1A1E42"/>
<path d="M243.173 203.451L241.553 229.02L262.397 199.767L243.173 203.451Z" fill="#1A1E42"/>
<path d="M243.462 198.902L246.341 153.506L225.464 183.264L243.462 198.902Z" fill="#272C59"/>
<path d="M243.173 203.451L241.553 229.02L225.178 187.777L243.173 203.451Z" fill="#272C59"/>
</g>
<path d="M410.122 348.913C409.868 348.914 409.619 348.847 409.399 348.72C409.179 348.592 408.996 348.409 408.869 348.188L395.127 324.303C394.936 323.97 394.884 323.574 394.983 323.203C395.083 322.831 395.325 322.514 395.656 322.322L419.976 308.235C420.308 308.043 420.702 307.991 421.072 308.09C421.442 308.19 421.758 308.433 421.95 308.766L435.689 332.66C435.88 332.993 435.932 333.389 435.833 333.76C435.734 334.131 435.492 334.448 435.16 334.641L410.843 348.719C410.624 348.846 410.376 348.913 410.122 348.913Z" fill="#020202"/>
<path d="M410.843 572.476C410.654 572.476 410.466 572.439 410.29 572.366C410.115 572.293 409.956 572.186 409.821 572.051C409.687 571.917 409.581 571.757 409.508 571.581C409.436 571.405 409.398 571.216 409.398 571.026V348.719C409.398 348.465 409.465 348.215 409.592 347.994C409.719 347.774 409.901 347.591 410.121 347.463L434.437 333.385C434.657 333.257 434.906 333.19 435.16 333.19C435.413 333.19 435.663 333.257 435.882 333.385C436.102 333.512 436.284 333.695 436.411 333.916C436.538 334.136 436.605 334.386 436.605 334.641V556.936C436.605 557.191 436.538 557.441 436.411 557.661C436.284 557.882 436.102 558.065 435.882 558.192L411.566 572.282C411.346 572.409 411.097 572.476 410.843 572.476Z" fill="#020202"/>
<path d="M435.16 556.937L410.843 571.027V348.72L435.16 334.642V556.937Z" fill="#0B0D1B"/>
<path d="M395.656 323.772C395.403 323.772 395.154 323.705 394.934 323.578L132.167 171.348C131.947 171.221 131.765 171.038 131.638 170.818C131.511 170.597 131.445 170.347 131.445 170.092V149.156C131.445 148.902 131.511 148.652 131.638 148.431C131.765 148.211 131.947 148.028 132.167 147.901L162.831 130.133C163.055 130.003 178.16 151.017 177.64 151.318L168.729 158.248V161.013L420.698 306.979C420.918 307.106 421.1 307.289 421.227 307.51C421.354 307.73 421.42 307.98 421.42 308.235C421.42 308.489 421.354 308.739 421.227 308.96C421.1 309.18 420.918 309.363 420.698 309.491L396.379 323.578C396.159 323.705 395.91 323.772 395.656 323.772Z" fill="#020202"/>
<path d="M163.554 131.39L132.889 149.157V170.093L395.656 322.323L419.976 308.236L167.284 161.85V157.411L177.561 149.869L176.081 140.733L163.554 131.39Z" fill="#DED9D9"/>
<path d="M435.16 334.641L410.843 348.72L395.656 322.323L419.975 308.235L435.16 334.641Z" fill="#1A1E42"/>
<path d="M491.008 377.261L478.374 369.942C478.154 369.815 477.905 369.748 477.652 369.748C477.398 369.748 477.149 369.815 476.929 369.942C476.709 370.07 476.527 370.253 476.4 370.473C476.273 370.694 476.207 370.944 476.207 371.198L476.204 385.005L410.843 422.871L363.008 395.159C362.788 395.032 362.539 394.965 362.286 394.965C362.032 394.965 361.783 395.032 361.563 395.159L348.915 402.492C348.914 402.493 348.913 402.494 348.911 402.495L339.55 407.908C339.33 408.035 339.147 408.218 339.02 408.438C338.893 408.659 338.826 408.909 338.826 409.164V448.913C338.826 449.167 338.893 449.417 339.019 449.638L348.387 465.923C348.514 466.143 348.696 466.326 348.916 466.454L397.48 494.587C397.518 494.609 397.561 494.618 397.6 494.637C397.641 494.656 397.681 494.672 397.723 494.688C397.877 494.746 398.038 494.777 398.202 494.781H423.483C423.644 494.777 423.802 494.747 423.953 494.691C423.996 494.676 424.036 494.659 424.078 494.64C424.12 494.62 424.165 494.61 424.206 494.587L491.008 455.877C491.228 455.749 491.411 455.566 491.537 455.346C491.664 455.125 491.731 454.875 491.731 454.621V378.517C491.731 378.263 491.664 378.013 491.537 377.792C491.411 377.572 491.228 377.388 491.008 377.261Z" fill="#231F20"/>
<path d="M490.286 378.519L477.652 371.198L477.649 385.842L410.843 424.545L362.285 396.416L349.638 403.748L352.817 411.014L396.801 435.926L424.324 435.524L485.405 399.608L490.286 393.162V378.519Z" fill="#DED9D9"/>
<path d="M398.202 494.781C397.834 494.781 397.479 494.64 397.211 494.387C396.943 494.134 396.782 493.787 396.76 493.419L394.425 454.509C394.42 454.43 394.421 454.35 394.429 454.271L396.764 431.711C396.801 431.354 396.969 431.024 397.234 430.784C397.5 430.544 397.844 430.411 398.202 430.411H423.483C423.812 430.411 424.13 430.523 424.386 430.729C424.642 430.935 424.821 431.222 424.893 431.544L428.919 449.593C428.952 449.741 428.962 449.893 428.948 450.044L424.923 493.465C424.889 493.825 424.723 494.159 424.457 494.403C424.191 494.646 423.843 494.781 423.483 494.781H398.202Z" fill="#231F20"/>
<path d="M423.483 431.862H398.203L395.867 454.422L398.203 493.331H423.483L427.509 449.91L423.483 431.862Z" fill="#1A1E42"/>
<path d="M398.202 494.781C397.948 494.781 397.699 494.714 397.48 494.587L348.916 466.454C348.696 466.326 348.514 466.143 348.387 465.923L339.019 449.638C338.893 449.418 338.826 449.168 338.826 448.913V409.164C338.826 408.909 338.893 408.659 339.02 408.438C339.147 408.218 339.33 408.035 339.55 407.908L348.917 402.492C349.137 402.365 349.386 402.298 349.639 402.298C349.892 402.298 350.141 402.365 350.36 402.492L398.924 430.605C399.144 430.732 399.327 430.915 399.453 431.136C399.58 431.356 399.647 431.606 399.647 431.861V493.331C399.647 493.521 399.61 493.71 399.537 493.886C399.465 494.062 399.358 494.222 399.224 494.356C399.09 494.491 398.93 494.598 398.755 494.671C398.58 494.743 398.392 494.781 398.202 494.781Z" fill="#231F20"/>
<path d="M398.202 431.862L349.638 403.748L340.27 409.163V448.913L349.638 465.198L398.202 493.331V431.862Z" fill="#D8D3D1"/>
<g clip-path="url(#clip1_821_6821)">
<path d="M371.307 448.182C371.268 447.903 371.219 447.622 371.167 447.34C371.131 447.146 371.099 446.953 371.057 446.758C371.018 446.579 370.973 446.399 370.929 446.22C370.868 445.967 370.805 445.714 370.734 445.461C370.693 445.316 370.649 445.171 370.605 445.026C370.519 444.741 370.427 444.457 370.329 444.173C370.289 444.059 370.251 443.944 370.21 443.829C370.068 443.439 369.918 443.049 369.756 442.663C369.738 442.62 369.717 442.577 369.699 442.534C369.55 442.187 369.393 441.843 369.229 441.502C369.178 441.397 369.127 441.293 369.075 441.189C368.915 440.866 368.747 440.546 368.574 440.229C368.541 440.17 368.51 440.109 368.477 440.049C368.271 439.682 368.055 439.321 367.832 438.964C367.767 438.861 367.699 438.759 367.633 438.657C367.468 438.401 367.299 438.15 367.126 437.902C367.033 437.767 366.938 437.634 366.842 437.502C366.691 437.295 366.536 437.092 366.379 436.891C366.248 436.722 366.117 436.555 365.983 436.391C365.855 436.235 365.723 436.084 365.591 435.932C365.369 435.675 365.142 435.425 364.911 435.182C364.798 435.063 364.685 434.945 364.57 434.83C364.112 434.368 363.632 433.932 363.131 433.521C363.044 433.45 362.955 433.384 362.867 433.315C362.358 432.909 361.825 432.536 361.272 432.199C360.855 431.952 360.425 431.731 359.984 431.536C359.849 431.476 359.716 431.423 359.583 431.37C359.339 431.272 359.098 431.186 358.86 431.112C358.708 431.065 358.555 431.018 358.406 430.98C358.264 430.945 358.125 430.914 357.986 430.888C357.803 430.852 357.622 430.822 357.444 430.801C357.341 430.789 357.238 430.777 357.137 430.769C356.919 430.753 356.7 430.749 356.481 430.756C356.431 430.757 356.379 430.754 356.33 430.757C356.076 430.772 355.823 430.805 355.573 430.855C355.512 430.868 355.454 430.884 355.394 430.898C355.203 430.943 355.015 430.999 354.83 431.066C354.773 431.087 354.714 431.107 354.657 431.13C354.426 431.222 354.201 431.332 353.986 431.46L356.893 429.711C356.912 429.7 356.93 429.689 356.949 429.678C357.115 429.581 357.287 429.495 357.463 429.418C357.496 429.404 357.531 429.395 357.564 429.381C357.621 429.358 357.679 429.339 357.737 429.318C357.826 429.286 357.912 429.249 358.003 429.221C358.1 429.192 358.201 429.174 358.3 429.15C358.36 429.136 358.419 429.119 358.481 429.107C358.513 429.101 358.545 429.09 358.578 429.084C358.782 429.048 358.989 429.023 359.196 429.009C359.209 429.008 359.224 429.01 359.237 429.009C359.286 429.006 359.336 429.009 359.386 429.008C359.547 429.002 359.707 428.996 359.873 429.004C359.929 429.006 359.988 429.017 360.044 429.021C360.145 429.029 360.247 429.041 360.35 429.053C360.446 429.064 360.539 429.067 360.637 429.083C360.721 429.096 360.809 429.123 360.894 429.14C361.032 429.167 361.171 429.197 361.312 429.232C361.388 429.251 361.461 429.26 361.538 429.282C361.612 429.303 361.691 429.34 361.767 429.364C362.005 429.437 362.246 429.524 362.49 429.622C362.575 429.656 362.657 429.675 362.744 429.712C362.792 429.733 362.842 429.766 362.89 429.788C363.332 429.983 363.762 430.204 364.179 430.451C364.732 430.788 365.265 431.161 365.773 431.567C365.862 431.636 365.95 431.701 366.038 431.773C366.539 432.184 367.02 432.621 367.478 433.083C367.517 433.122 367.56 433.153 367.598 433.192C367.673 433.268 367.742 433.354 367.815 433.432C368.048 433.676 368.276 433.928 368.5 434.186C368.571 434.268 368.647 434.342 368.717 434.426C368.776 434.495 368.83 434.571 368.888 434.642C369.024 434.806 369.156 434.975 369.287 435.144C369.373 435.255 369.464 435.36 369.548 435.473C369.617 435.565 369.681 435.661 369.748 435.753C369.844 435.886 369.94 436.02 370.034 436.154C370.098 436.247 370.166 436.336 370.23 436.429C370.336 436.586 370.436 436.748 370.539 436.907C370.606 437.01 370.674 437.112 370.739 437.216C370.766 437.26 370.795 437.302 370.822 437.345C371.005 437.64 371.181 437.939 371.352 438.242C371.363 438.261 371.373 438.282 371.384 438.302C371.417 438.361 371.447 438.42 371.479 438.479C371.599 438.696 371.719 438.913 371.832 439.134C371.884 439.235 371.931 439.338 371.982 439.44C372.034 439.545 372.086 439.65 372.136 439.755C372.181 439.849 372.23 439.941 372.273 440.035C372.388 440.281 372.496 440.53 372.602 440.779C372.622 440.825 372.644 440.87 372.663 440.916C372.669 440.929 372.675 440.942 372.68 440.955C372.812 441.27 372.938 441.587 373.056 441.905C373.077 441.963 373.095 442.021 373.116 442.079C373.158 442.195 373.197 442.311 373.237 442.428C373.292 442.587 373.351 442.746 373.403 442.905C373.442 443.029 373.475 443.154 373.512 443.278C373.556 443.423 373.6 443.567 373.641 443.712C373.666 443.803 373.697 443.894 373.721 443.985C373.765 444.148 373.797 444.31 373.837 444.473C373.88 444.652 373.925 444.831 373.964 445.009C373.977 445.073 373.996 445.137 374.009 445.2C374.036 445.332 374.05 445.461 374.074 445.592C374.126 445.874 374.175 446.154 374.214 446.434C374.224 446.512 374.243 446.591 374.253 446.669C374.262 446.742 374.258 446.812 374.266 446.885C374.341 447.502 374.38 448.122 374.383 448.743C374.374 452.081 373.234 454.431 371.396 455.536L368.489 457.284C370.327 456.179 371.467 453.829 371.477 450.491C371.473 449.87 371.434 449.25 371.359 448.633C371.342 448.483 371.328 448.333 371.307 448.182Z" fill="#667085"/>
<path d="M368.49 457.287C372.482 454.886 372.471 447.159 368.466 440.027C364.461 432.896 357.979 429.06 353.987 431.461C349.995 433.862 350.006 441.589 354.011 448.721C358.016 455.852 364.498 459.688 368.49 457.287Z" fill="#1A1E42"/>
</g>
<path d="M423.483 494.781C423.294 494.781 423.106 494.743 422.93 494.67C422.755 494.598 422.596 494.491 422.462 494.356C422.327 494.221 422.221 494.062 422.148 493.886C422.076 493.71 422.038 493.521 422.039 493.331V431.861C422.039 431.606 422.105 431.356 422.232 431.136C422.359 430.915 422.541 430.732 422.761 430.605L489.564 391.906C489.783 391.779 490.032 391.712 490.286 391.712C490.54 391.712 490.789 391.779 491.009 391.906C491.228 392.034 491.411 392.217 491.537 392.437C491.664 392.658 491.731 392.908 491.731 393.162V454.621C491.731 454.875 491.664 455.125 491.537 455.346C491.411 455.566 491.228 455.749 491.008 455.877L424.206 494.587C423.986 494.714 423.737 494.781 423.483 494.781Z" fill="#231F20"/>
<path d="M423.483 431.862L490.287 393.162V454.621L423.483 493.331V431.862Z" fill="#0B0D1B"/>
<path d="M292.253 617.151V630.486L310.904 641.294H337.238L355.875 630.473V617.151L337.238 606.349H310.904L292.253 617.151Z" fill="#FCE0BF"/>
<g opacity="0.3" filter="url(#filter1_f_821_6821)">
<path d="M200.686 537.202V547.947L215.147 556.656H235.566L250.017 547.936V537.202L235.566 528.497H215.147L200.686 537.202Z" fill="#010101"/>
</g>
<g opacity="0.3" filter="url(#filter2_f_821_6821)">
<path d="M514.604 515.264V523.047L525.079 529.356H539.869L550.337 523.04V515.264L539.869 508.959H525.079L514.604 515.264Z" fill="#010101"/>
</g>
<path d="M517.129 511.596V518.023L526.117 523.232H538.81L547.792 518.016V511.596L538.81 506.39H526.117L517.129 511.596Z" fill="#FCE0BF"/>
<g opacity="0.3" filter="url(#filter3_f_821_6821)">
<path d="M546.845 587.546V599.56L563.013 609.297H585.843L602 599.548V587.546L585.843 577.813H563.013L546.845 587.546Z" fill="#010101"/>
</g>
<path d="M601.629 592.388L601.623 579.842C601.623 579.653 601.573 579.467 601.479 579.303C601.385 579.14 601.25 579.004 601.087 578.909L585.801 570.025C585.637 569.93 585.452 569.88 585.263 569.88H563.57C563.381 569.88 563.195 569.93 563.032 570.024L547.709 578.908C547.546 579.003 547.41 579.139 547.316 579.303C547.221 579.467 547.172 579.653 547.172 579.843V598.381C547.172 598.57 547.221 598.756 547.316 598.92C547.41 599.083 547.546 599.219 547.709 599.314L563.032 608.204C563.056 608.219 563.084 608.225 563.11 608.237C563.14 608.252 563.169 608.263 563.201 608.275C563.319 608.322 563.443 608.347 563.57 608.35H585.263C585.389 608.347 585.515 608.322 585.633 608.275C585.663 608.264 585.692 608.252 585.721 608.238C585.747 608.225 585.776 608.219 585.802 608.204L601.093 599.314C601.256 599.219 601.392 599.083 601.486 598.919C601.58 598.756 601.629 598.57 601.629 598.381V592.389L601.629 592.389L601.629 592.388Z" fill="#231F20"/>
<path d="M585.263 607.271L600.554 598.38V592.39L582.78 597.522L585.263 607.271Z" fill="#F9C166"/>
<path d="M563.569 607.271L548.247 598.38V592.39L565.74 598.131L563.569 607.271Z" fill="#F9C166"/>
<path d="M563.569 607.271H585.263V601.272L575.039 597.522L563.569 601.272V607.271Z" fill="#FDB45C"/>
<path d="M548.247 592.39L563.569 601.271H585.263L600.554 592.39L600.548 579.843L585.263 570.958H563.569L548.247 579.843V592.39Z" fill="#FBD9A2"/>
<path d="M550.742 581.884V591.804L564.617 599.845H584.208L598.073 591.794V581.884L584.208 573.848H564.617L550.742 581.884Z" fill="#F9C166"/>
<path d="M550.742 580.41V581.884L564.617 573.847H584.208L598.073 581.884V580.41L584.208 572.417L564.617 572.419L550.742 580.41Z" fill="#FDB45C"/>
<g clip-path="url(#clip2_821_6821)">
<path d="M252.098 334.842C264.493 341.985 274.499 359.293 274.459 373.502C274.428 384.21 268.698 390.101 260.576 389.301L260.42 424.995C260.404 430.458 256.536 432.667 251.773 429.922C247.011 427.178 243.168 420.524 243.183 415.062L243.34 379.367C235.24 370.819 229.562 358.353 229.592 347.645C229.632 333.436 239.711 327.703 252.098 334.842Z" fill="#475467"/>
<path d="M252.098 334.842C239.711 327.703 229.632 333.436 229.592 347.645C229.561 358.353 235.24 370.819 243.34 379.367L272.714 362.438C269.33 351.253 261.385 340.194 252.098 334.842Z" fill="#667085"/>
<mask id="mask1_821_6821" style="mask-type:luminance" maskUnits="userSpaceOnUse" x="67" y="336" width="208" height="140">
<path d="M254.347 336.267L229.704 350.369L225.7 352.66C220.823 350.271 216.471 350.356 213.361 352.497L204.312 357.678C201.122 359.493 199.065 363.286 198.813 368.663L194.028 371.335C185.966 367.397 176.821 364.575 167.201 362.879C141.038 358.263 111.387 361.939 90.6061 373.916C89.4726 374.571 88.3781 375.242 87.3328 375.925C74.4031 384.347 67.9578 394.924 68.0019 405.482C68.0023 405.476 68.0014 405.471 67.9993 405.466L68.0304 431.631C68.0641 442.885 75.4717 454.124 90.2715 462.712H90.2767L90.2768 462.713L90.2774 462.714L90.2782 462.715L90.2792 462.715C91.4957 463.419 92.7511 464.084 94.0245 464.732C107.491 471.572 124.132 475.209 140.999 475.637C159.56 476.103 178.375 472.68 193.499 465.379C195.239 464.537 196.938 463.657 198.575 462.715C213.245 454.259 220.777 443.238 221.158 432.157C221.171 431.848 221.176 431.527 221.176 431.193L221.145 405.013C221.145 405.065 221.142 405.112 221.142 405.161C221.142 404.635 221.129 404.11 221.098 403.587C224.685 404.785 227.896 404.573 230.402 403.139C230.408 403.135 230.414 403.131 230.42 403.128L240.11 397.58C241.387 396.84 242.471 395.809 243.272 394.572C244.629 392.537 245.451 389.81 245.588 386.483L268.338 373.463L274.282 370.061C272.986 357.499 264.722 343.43 254.347 336.267ZM77.609 426.852C77.4975 426.735 77.3911 426.619 77.2796 426.499C77.4196 426.647 77.5597 426.797 77.6998 426.942C77.6686 426.914 77.6401 426.883 77.609 426.852ZM214.788 422.787C214.757 422.828 214.723 422.87 214.689 422.914C214.736 422.852 214.783 422.792 214.827 422.732L214.788 422.787ZM216.201 420.775C216.188 420.796 216.173 420.817 216.157 420.837C216.183 420.796 216.209 420.757 216.238 420.716C216.227 420.736 216.215 420.756 216.201 420.775Z" fill="white"/>
</mask>
<g mask="url(#mask1_821_6821)">
<path d="M290.226 360.939C295.677 357.818 295.72 347.673 290.322 338.279C284.924 328.885 276.129 323.799 270.678 326.92C265.227 330.041 265.184 340.187 270.582 349.581C275.98 358.975 284.775 364.06 290.226 360.939Z" fill="#C8B482"/>
<mask id="path-72-inside-1_821_6821" fill="white">
<path d="M236.401 391.742C238.944 390.281 240.518 387.146 240.52 382.687C240.519 382.149 240.496 381.61 240.448 381.063C240.433 380.881 240.41 380.694 240.388 380.515C240.349 380.158 240.31 379.801 240.257 379.448C240.145 378.721 239.996 377.996 239.82 377.267C239.763 377.044 239.7 376.822 239.639 376.596C239.529 376.198 239.416 375.793 239.289 375.391C239.203 375.127 239.114 374.867 239.021 374.604C238.906 374.275 238.787 373.944 238.658 373.619C238.554 373.343 238.445 373.066 238.327 372.795C238.199 372.488 238.066 372.191 237.933 371.893C237.806 371.617 237.679 371.34 237.542 371.07C237.397 370.772 237.246 370.476 237.094 370.179C236.952 369.918 236.812 369.653 236.666 369.389C236.487 369.077 236.306 368.77 236.12 368.46C235.972 368.219 235.827 367.974 235.676 367.738C235.439 367.363 235.185 366.995 234.933 366.635C234.801 366.439 234.673 366.246 234.536 366.06C234.087 365.449 233.628 364.856 233.145 364.285C232.983 364.09 232.811 363.901 232.643 363.715C232.398 363.437 232.157 363.16 231.904 362.895C231.718 362.698 231.525 362.515 231.339 362.331C231.087 362.084 230.837 361.833 230.582 361.602C230.432 361.468 230.28 361.338 230.127 361.209C229.988 361.087 229.845 360.962 229.704 360.845C229.421 360.61 229.137 360.387 228.851 360.168C228.689 360.045 228.529 359.917 228.365 359.799C227.797 359.394 227.219 359.007 226.627 358.666C226.362 358.513 226.103 358.393 225.839 358.259C225.585 358.131 225.328 357.995 225.079 357.887C224.86 357.791 224.642 357.713 224.426 357.63C224.184 357.532 223.937 357.432 223.693 357.357C223.548 357.309 223.406 357.275 223.255 357.236C222.865 357.12 222.468 357.029 222.067 356.963C221.899 356.932 221.729 356.906 221.563 356.882C221.282 356.851 221.009 356.837 220.738 356.83C220.569 356.822 220.395 356.812 220.23 356.818C220.005 356.826 219.779 356.846 219.556 356.878C219.383 356.897 219.208 356.91 219.042 356.939C218.841 356.978 218.643 357.027 218.448 357.087C218.278 357.132 218.111 357.173 217.947 357.228C217.75 357.3 217.566 357.391 217.378 357.479C217.201 357.557 217.023 357.627 216.855 357.721L270.688 326.919C270.736 326.887 270.787 326.862 270.839 326.833C270.955 326.768 271.085 326.729 271.209 326.67C271.395 326.586 271.586 326.493 271.781 326.426C271.814 326.409 271.848 326.393 271.878 326.381C272.007 326.335 272.147 326.32 272.277 326.282C272.475 326.229 272.668 326.173 272.87 326.134C272.917 326.126 272.955 326.112 272.995 326.105C273.122 326.082 273.259 326.084 273.387 326.068C273.609 326.047 273.833 326.021 274.059 326.013C274.115 326.01 274.169 325.999 274.222 326C274.336 326 274.456 326.021 274.569 326.021C274.84 326.028 275.115 326.049 275.397 326.08C275.475 326.089 275.554 326.087 275.637 326.099C275.722 326.106 275.815 326.142 275.898 326.154C276.288 326.223 276.685 326.314 277.091 326.429C277.189 326.456 277.279 326.466 277.381 326.495C277.427 326.509 277.479 326.533 277.529 326.55C277.77 326.63 278.017 326.73 278.262 326.824C278.478 326.906 278.692 326.981 278.908 327.082C279.162 327.193 279.418 327.328 279.677 327.46C279.857 327.552 280.036 327.625 280.218 327.724L280.46 327.863C281.059 328.211 281.639 328.589 282.198 328.996C282.363 329.115 282.52 329.236 282.682 329.359C282.968 329.578 283.252 329.801 283.532 330.04C283.676 330.153 283.82 330.277 283.963 330.402C284.058 330.486 284.156 330.555 284.251 330.639C284.306 330.689 284.358 330.743 284.413 330.792C284.67 331.03 284.92 331.281 285.172 331.528C285.363 331.716 285.551 331.896 285.732 332.09C285.986 332.355 286.236 332.637 286.481 332.916C286.622 333.075 286.773 333.227 286.912 333.391C286.938 333.418 286.955 333.451 286.981 333.478C287.46 334.047 287.923 334.642 288.364 335.255C288.399 335.299 288.436 335.338 288.468 335.386C288.571 335.529 288.664 335.678 288.764 335.826C289.018 336.193 289.268 336.558 289.505 336.933C289.563 337.02 289.627 337.105 289.682 337.197C289.775 337.346 289.859 337.501 289.954 337.658C290.137 337.96 290.32 338.275 290.494 338.584C290.559 338.699 290.632 338.813 290.697 338.928C290.778 339.076 290.846 339.228 290.923 339.374C291.081 339.669 291.229 339.963 291.378 340.264C291.439 340.395 291.515 340.522 291.577 340.653C291.642 340.798 291.696 340.943 291.765 341.084C291.902 341.384 292.032 341.686 292.16 341.992C292.217 342.132 292.287 342.269 292.346 342.416C292.399 342.542 292.439 342.679 292.489 342.809C292.62 343.141 292.74 343.473 292.854 343.802C292.908 343.958 292.975 344.11 293.028 344.266C293.061 344.375 293.085 344.478 293.118 344.587C293.245 344.988 293.36 345.389 293.468 345.791C293.516 345.957 293.576 346.122 293.617 346.289C293.632 346.346 293.636 346.402 293.648 346.463C293.829 347.194 293.979 347.919 294.088 348.639C294.095 348.679 294.105 348.714 294.112 348.754C294.16 349.074 294.187 349.388 294.219 349.705C294.238 349.89 294.269 350.074 294.284 350.256C294.325 350.805 294.348 351.344 294.351 351.877C294.352 356.344 292.777 359.479 290.232 360.932L236.401 391.742Z"/>
</mask>
<path d="M236.401 391.742C238.944 390.281 240.518 387.146 240.52 382.687C240.519 382.149 240.496 381.61 240.448 381.063C240.433 380.881 240.41 380.694 240.388 380.515C240.349 380.158 240.31 379.801 240.257 379.448C240.145 378.721 239.996 377.996 239.82 377.267C239.763 377.044 239.7 376.822 239.639 376.596C239.529 376.198 239.416 375.793 239.289 375.391C239.203 375.127 239.114 374.867 239.021 374.604C238.906 374.275 238.787 373.944 238.658 373.619C238.554 373.343 238.445 373.066 238.327 372.795C238.199 372.488 238.066 372.191 237.933 371.893C237.806 371.617 237.679 371.34 237.542 371.07C237.397 370.772 237.246 370.476 237.094 370.179C236.952 369.918 236.812 369.653 236.666 369.389C236.487 369.077 236.306 368.77 236.12 368.46C235.972 368.219 235.827 367.974 235.676 367.738C235.439 367.363 235.185 366.995 234.933 366.635C234.801 366.439 234.673 366.246 234.536 366.06C234.087 365.449 233.628 364.856 233.145 364.285C232.983 364.09 232.811 363.901 232.643 363.715C232.398 363.437 232.157 363.16 231.904 362.895C231.718 362.698 231.525 362.515 231.339 362.331C231.087 362.084 230.837 361.833 230.582 361.602C230.432 361.468 230.28 361.338 230.127 361.209C229.988 361.087 229.845 360.962 229.704 360.845C229.421 360.61 229.137 360.387 228.851 360.168C228.689 360.045 228.529 359.917 228.365 359.799C227.797 359.394 227.219 359.007 226.627 358.666C226.362 358.513 226.103 358.393 225.839 358.259C225.585 358.131 225.328 357.995 225.079 357.887C224.86 357.791 224.642 357.713 224.426 357.63C224.184 357.532 223.937 357.432 223.693 357.357C223.548 357.309 223.406 357.275 223.255 357.236C222.865 357.12 222.468 357.029 222.067 356.963C221.899 356.932 221.729 356.906 221.563 356.882C221.282 356.851 221.009 356.837 220.738 356.83C220.569 356.822 220.395 356.812 220.23 356.818C220.005 356.826 219.779 356.846 219.556 356.878C219.383 356.897 219.208 356.91 219.042 356.939C218.841 356.978 218.643 357.027 218.448 357.087C218.278 357.132 218.111 357.173 217.947 357.228C217.75 357.3 217.566 357.391 217.378 357.479C217.201 357.557 217.023 357.627 216.855 357.721L270.688 326.919C270.736 326.887 270.787 326.862 270.839 326.833C270.955 326.768 271.085 326.729 271.209 326.67C271.395 326.586 271.586 326.493 271.781 326.426C271.814 326.409 271.848 326.393 271.878 326.381C272.007 326.335 272.147 326.32 272.277 326.282C272.475 326.229 272.668 326.173 272.87 326.134C272.917 326.126 272.955 326.112 272.995 326.105C273.122 326.082 273.259 326.084 273.387 326.068C273.609 326.047 273.833 326.021 274.059 326.013C274.115 326.01 274.169 325.999 274.222 326C274.336 326 274.456 326.021 274.569 326.021C274.84 326.028 275.115 326.049 275.397 326.08C275.475 326.089 275.554 326.087 275.637 326.099C275.722 326.106 275.815 326.142 275.898 326.154C276.288 326.223 276.685 326.314 277.091 326.429C277.189 326.456 277.279 326.466 277.381 326.495C277.427 326.509 277.479 326.533 277.529 326.55C277.77 326.63 278.017 326.73 278.262 326.824C278.478 326.906 278.692 326.981 278.908 327.082C279.162 327.193 279.418 327.328 279.677 327.46C279.857 327.552 280.036 327.625 280.218 327.724L280.46 327.863C281.059 328.211 281.639 328.589 282.198 328.996C282.363 329.115 282.52 329.236 282.682 329.359C282.968 329.578 283.252 329.801 283.532 330.04C283.676 330.153 283.82 330.277 283.963 330.402C284.058 330.486 284.156 330.555 284.251 330.639C284.306 330.689 284.358 330.743 284.413 330.792C284.67 331.03 284.92 331.281 285.172 331.528C285.363 331.716 285.551 331.896 285.732 332.09C285.986 332.355 286.236 332.637 286.481 332.916C286.622 333.075 286.773 333.227 286.912 333.391C286.938 333.418 286.955 333.451 286.981 333.478C287.46 334.047 287.923 334.642 288.364 335.255C288.399 335.299 288.436 335.338 288.468 335.386C288.571 335.529 288.664 335.678 288.764 335.826C289.018 336.193 289.268 336.558 289.505 336.933C289.563 337.02 289.627 337.105 289.682 337.197C289.775 337.346 289.859 337.501 289.954 337.658C290.137 337.96 290.32 338.275 290.494 338.584C290.559 338.699 290.632 338.813 290.697 338.928C290.778 339.076 290.846 339.228 290.923 339.374C291.081 339.669 291.229 339.963 291.378 340.264C291.439 340.395 291.515 340.522 291.577 340.653C291.642 340.798 291.696 340.943 291.765 341.084C291.902 341.384 292.032 341.686 292.16 341.992C292.217 342.132 292.287 342.269 292.346 342.416C292.399 342.542 292.439 342.679 292.489 342.809C292.62 343.141 292.74 343.473 292.854 343.802C292.908 343.958 292.975 344.11 293.028 344.266C293.061 344.375 293.085 344.478 293.118 344.587C293.245 344.988 293.36 345.389 293.468 345.791C293.516 345.957 293.576 346.122 293.617 346.289C293.632 346.346 293.636 346.402 293.648 346.463C293.829 347.194 293.979 347.919 294.088 348.639C294.095 348.679 294.105 348.714 294.112 348.754C294.16 349.074 294.187 349.388 294.219 349.705C294.238 349.89 294.269 350.074 294.284 350.256C294.325 350.805 294.348 351.344 294.351 351.877C294.352 356.344 292.777 359.479 290.232 360.932L236.401 391.742Z" fill="#F9C166" stroke="#231F20" stroke-width="2" mask="url(#path-72-inside-1_821_6821)"/>
<path d="M236.402 391.74C241.854 388.619 241.897 378.473 236.499 369.079C231.101 359.685 222.306 354.6 216.855 357.721C211.404 360.842 211.361 370.987 216.758 380.382C222.156 389.776 230.951 394.861 236.402 391.74Z" fill="#C8B482"/>
<path d="M291.471 359.309L291.471 359.309C291.552 359.222 291.631 359.131 291.711 359.036C291.735 359.006 291.756 358.981 291.777 358.956L291.777 358.955C291.867 358.845 291.954 358.73 292.039 358.612C292.039 358.611 292.04 358.611 292.04 358.61L292.049 358.597L292.051 358.595C293.177 357.013 293.851 354.757 293.851 351.878C293.848 351.359 293.826 350.833 293.785 350.295C293.777 350.191 293.766 350.113 293.755 350.025C293.745 349.95 293.733 349.868 293.722 349.757L293.722 349.756C293.716 349.698 293.71 349.642 293.705 349.586C293.679 349.327 293.655 349.084 293.618 348.835C293.617 348.83 293.616 348.825 293.615 348.817C293.614 348.813 293.613 348.808 293.612 348.803C293.608 348.785 293.601 348.756 293.596 348.724L293.594 348.714L293.594 348.714C293.487 348.011 293.341 347.302 293.163 346.583L293.161 346.573L293.158 346.563C293.149 346.516 293.142 346.469 293.139 346.45C293.135 346.424 293.134 346.419 293.134 346.419L293.131 346.408L293.131 346.408C293.109 346.315 293.085 346.241 293.057 346.153C293.036 346.09 293.014 346.02 292.988 345.931L292.985 345.921L292.985 345.921C292.879 345.524 292.766 345.13 292.641 344.737L292.64 344.731L292.64 344.731C292.621 344.668 292.604 344.608 292.59 344.556C292.577 344.505 292.565 344.462 292.552 344.419C292.531 344.356 292.505 344.292 292.476 344.216L292.474 344.211C292.445 344.137 292.412 344.052 292.382 343.965C292.268 343.639 292.151 343.315 292.024 342.992L292.023 342.989C291.998 342.924 291.975 342.858 291.956 342.802C291.953 342.793 291.949 342.784 291.946 342.775C291.923 342.709 291.905 342.656 291.885 342.609L291.881 342.601L291.881 342.601C291.857 342.541 291.83 342.481 291.798 342.41L291.793 342.398C291.763 342.334 291.729 342.259 291.698 342.182C291.572 341.882 291.445 341.588 291.312 341.296C291.271 341.211 291.221 341.093 291.18 340.995C291.157 340.942 291.137 340.895 291.123 340.862C291.098 340.811 291.07 340.758 291.036 340.693L291.034 340.689C291.001 340.629 290.963 340.556 290.927 340.481C290.779 340.183 290.636 339.897 290.483 339.612L290.481 339.608C290.443 339.536 290.407 339.463 290.375 339.397L290.362 339.372C290.326 339.298 290.294 339.233 290.26 339.171C290.232 339.121 290.201 339.07 290.167 339.013L290.165 339.011C290.132 338.955 290.095 338.894 290.059 338.83L290.059 338.83C289.887 338.524 289.707 338.215 289.526 337.917C289.526 337.917 289.526 337.917 289.526 337.917L289.954 337.658C289.91 337.586 289.869 337.515 289.829 337.445C289.781 337.361 289.733 337.278 289.682 337.197L291.471 359.309ZM291.471 359.309C291.443 359.339 291.415 359.368 291.381 359.402C291.373 359.411 291.365 359.419 291.356 359.428M291.471 359.309L291.356 359.428M291.356 359.428C291.279 359.507 291.208 359.578 291.137 359.644L291.137 359.644C291.087 359.691 291.037 359.734 290.972 359.79C290.955 359.805 290.939 359.819 290.924 359.832C290.87 359.879 290.825 359.918 290.777 359.956L290.777 359.957C290.714 360.007 290.648 360.055 290.571 360.111L290.548 360.128M291.356 359.428L290.548 360.128M290.548 360.128C290.514 360.153 290.49 360.171 290.469 360.186C290.442 360.207 290.422 360.222 290.392 360.242L290.392 360.242C290.258 360.334 290.122 360.419 289.984 360.498L289.984 360.498L239.367 389.468C240.31 387.91 240.871 385.908 240.983 383.552L246.145 380.907L246.153 380.903L246.161 380.899C258.475 374.014 259.944 356.602 248.617 348.148C247.998 347.685 247.352 347.259 246.681 346.873L246.68 346.873C244.384 345.558 242.176 344.925 240.193 344.943L270.936 327.353L270.95 327.345L270.963 327.336C270.979 327.326 270.99 327.32 271.013 327.308C271.028 327.299 271.049 327.288 271.082 327.27L271.085 327.269C271.112 327.253 271.147 327.238 271.208 327.213C271.216 327.21 271.224 327.207 271.233 327.203C271.284 327.183 271.353 327.155 271.42 327.123C271.461 327.105 271.5 327.087 271.538 327.069C271.686 327.002 271.813 326.944 271.944 326.899L271.974 326.888L272.002 326.874C272.031 326.86 272.046 326.853 272.055 326.849C272.083 326.84 272.12 326.831 272.18 326.818C272.187 326.816 272.195 326.815 272.203 326.813C272.258 326.802 272.336 326.785 272.412 326.763C272.446 326.754 272.48 326.745 272.513 326.736C272.675 326.692 272.816 326.654 272.964 326.626C273.006 326.618 273.043 326.608 273.062 326.603L273.065 326.602C273.077 326.599 273.083 326.597 273.084 326.597C273.118 326.591 273.16 326.587 273.224 326.583C273.233 326.582 273.243 326.582 273.253 326.581C273.306 326.578 273.374 326.573 273.441 326.565C273.484 326.561 273.525 326.557 273.566 326.553C273.746 326.535 273.91 326.519 274.075 326.513L274.083 326.513L274.091 326.512C274.116 326.511 274.137 326.509 274.154 326.507L274.178 326.504L274.196 326.502C274.209 326.501 274.215 326.5 274.217 326.5L274.223 326.5C274.253 326.5 274.289 326.503 274.351 326.508L274.358 326.509C274.41 326.514 274.485 326.52 274.562 326.521M290.548 360.128L275.637 326.099C275.684 326.103 275.734 326.116 275.783 326.128C275.822 326.138 275.861 326.148 275.898 326.154C276.289 326.223 276.685 326.314 277.091 326.429C277.137 326.442 277.182 326.451 277.227 326.46C277.277 326.47 277.328 326.48 277.382 326.495C277.406 326.503 277.431 326.513 277.458 326.523C277.481 326.533 277.505 326.542 277.529 326.55C277.71 326.61 277.894 326.681 278.078 326.752C278.139 326.776 278.201 326.8 278.262 326.824M274.562 326.521C274.56 326.521 274.558 326.521 274.556 326.521L274.569 326.021L274.57 326.521C274.568 326.521 274.565 326.521 274.562 326.521ZM274.562 326.521C274.814 326.527 275.072 326.547 275.34 326.576M275.34 326.576C275.341 326.577 275.342 326.577 275.342 326.577L275.397 326.08L275.337 326.576C275.338 326.576 275.339 326.576 275.34 326.576ZM275.34 326.576C275.393 326.583 275.444 326.585 275.478 326.587L275.489 326.588C275.528 326.59 275.549 326.591 275.566 326.594L275.58 326.596L275.593 326.597C275.593 326.597 275.604 326.599 275.644 326.609L275.656 326.612C275.673 326.616 275.697 326.622 275.719 326.628C275.746 326.634 275.78 326.641 275.817 326.647C276.189 326.714 276.567 326.801 276.955 326.91L276.955 326.91L276.959 326.911C277.023 326.929 277.084 326.941 277.127 326.949L277.136 326.951C277.179 326.96 277.208 326.966 277.235 326.973C277.237 326.974 277.239 326.975 277.241 326.975L277.269 326.987L277.275 326.989C277.297 326.997 277.333 327.012 277.369 327.024L277.373 327.025C277.54 327.08 277.707 327.145 277.887 327.215C277.951 327.239 278.016 327.265 278.084 327.291L278.262 326.824M278.262 326.824C278.307 326.841 278.351 326.857 278.395 326.874C278.566 326.938 278.736 327.002 278.908 327.082C279.113 327.171 279.319 327.277 279.527 327.383C279.577 327.409 279.627 327.434 279.677 327.46M278.262 326.824L278.084 327.291C278.134 327.31 278.182 327.328 278.228 327.345C278.396 327.409 278.544 327.464 278.697 327.536L278.697 327.536L278.709 327.541C278.897 327.623 279.086 327.719 279.293 327.825C279.344 327.851 279.397 327.878 279.45 327.905M279.677 327.46L279.45 327.905C279.45 327.905 279.45 327.905 279.45 327.905M279.677 327.46C279.754 327.499 279.831 327.535 279.908 327.571C280.011 327.619 280.114 327.667 280.218 327.724L279.45 327.905M279.677 327.46L279.451 327.906C279.451 327.906 279.45 327.905 279.45 327.905M270.688 326.919C270.723 326.896 270.759 326.876 270.796 326.856C270.811 326.849 270.825 326.841 270.839 326.833C270.906 326.795 270.978 326.767 271.051 326.737C271.103 326.716 271.157 326.695 271.209 326.67C271.246 326.653 271.282 326.636 271.319 326.62C271.47 326.55 271.624 326.48 271.781 326.426L270.688 326.919ZM270.688 326.919L239.031 345.032L270.688 326.919ZM274.059 326.013C274.081 326.012 274.102 326.01 274.123 326.007C274.157 326.003 274.19 326 274.222 326L274.059 326.013ZM274.059 326.013C273.875 326.019 273.691 326.038 273.51 326.056C273.469 326.06 273.428 326.064 273.387 326.068L274.059 326.013ZM238.689 390.432L290.232 360.932C290.383 360.846 290.53 360.753 290.674 360.655C290.71 360.63 290.746 360.604 290.782 360.577C290.802 360.562 290.822 360.547 290.842 360.532L290.866 360.515C290.941 360.46 291.017 360.405 291.09 360.347L238.689 390.432ZM285.088 331.445L284.735 331.799C284.808 331.872 284.878 331.94 284.945 332.006C285.093 332.15 285.23 332.284 285.367 332.431L285.367 332.431L285.371 332.435C285.616 332.693 285.861 332.967 286.106 333.246L286.107 333.248C286.184 333.334 286.248 333.402 286.307 333.466C286.383 333.547 286.451 333.62 286.531 333.714L286.538 333.723C286.538 333.723 286.538 333.723 286.538 333.723C286.543 333.729 286.554 333.745 286.566 333.761C286.576 333.775 286.59 333.791 286.606 333.81L285.088 331.445Z" fill="#F7931A" stroke="#231F20"/>
<path d="M208.98 364.211C208.98 358.389 211.015 354.417 214.165 352.575C217.314 350.735 221.752 350.921 226.785 353.803L227.033 353.369L226.785 353.803C231.815 356.683 236.399 361.669 239.725 367.421C243.052 373.172 245.095 379.642 245.095 385.46C245.095 391.277 243.058 395.245 239.906 397.084C236.755 398.922 232.315 398.735 227.282 395.853C222.251 392.973 217.67 387.988 214.345 382.239C211.021 376.49 208.98 370.024 208.98 364.211Z" fill="#C8B482" stroke="#231F20"/>
<mask id="path-76-inside-2_821_6821" fill="white">
<path d="M204.985 357.364C205.236 357.247 205.484 357.126 205.748 357.033C205.963 356.956 206.19 356.904 206.413 356.843C206.674 356.772 206.933 356.696 207.204 356.646C207.428 356.605 207.662 356.587 207.893 356.561C208.189 356.527 208.485 356.493 208.792 356.484C209.224 356.468 209.656 356.477 210.087 356.509C210.159 356.515 210.232 356.525 210.304 356.532C210.761 356.578 211.216 356.648 211.666 356.739C211.754 356.757 211.84 356.769 211.929 356.789C212.417 356.896 212.916 357.039 213.42 357.202C213.742 357.306 214.073 357.44 214.402 357.567C214.69 357.679 214.976 357.782 215.268 357.912C215.604 358.061 215.947 358.241 216.288 358.414C216.638 358.592 216.984 358.752 217.339 358.955C218.138 359.421 218.913 359.927 219.661 360.471C219.88 360.628 220.096 360.794 220.312 360.958C220.891 361.398 221.461 361.863 222.021 362.352C222.221 362.527 222.424 362.694 222.622 362.875C222.964 363.188 223.298 363.52 223.632 363.85C223.884 364.101 224.141 364.345 224.389 364.604C224.727 364.959 225.053 365.331 225.381 365.701C225.605 365.954 225.834 366.2 226.052 366.46C226.694 367.223 227.311 368.017 227.905 368.834C228.087 369.084 228.259 369.343 228.437 369.597C228.775 370.083 229.108 370.573 229.428 371.074C229.631 371.393 229.828 371.717 230.024 372.042C230.271 372.453 230.515 372.866 230.75 373.285C230.945 373.633 231.135 373.984 231.32 374.336C231.528 374.731 231.73 375.127 231.926 375.526C232.104 375.89 232.277 376.256 232.444 376.623C232.626 377.024 232.803 377.427 232.973 377.831C233.126 378.195 233.273 378.56 233.415 378.927C233.586 379.367 233.748 379.81 233.902 380.253C234.024 380.602 234.143 380.951 234.255 381.301C234.426 381.837 234.579 382.374 234.724 382.91C234.806 383.21 234.892 383.51 234.965 383.809C235.203 384.783 235.401 385.754 235.55 386.719C235.623 387.198 235.675 387.673 235.725 388.148C235.751 388.392 235.789 388.638 235.808 388.881C235.867 389.61 235.901 390.333 235.901 391.047C235.901 397.005 233.797 401.194 230.401 403.139L240.111 397.579C243.507 395.635 245.611 391.446 245.611 385.487C245.611 384.774 245.577 384.051 245.518 383.321C245.499 383.079 245.461 382.833 245.435 382.589C245.39 382.162 245.354 381.738 245.29 381.308C245.282 381.259 245.267 381.209 245.26 381.159C245.111 380.195 244.913 379.224 244.675 378.25C244.656 378.171 244.648 378.094 244.628 378.015C244.572 377.794 244.494 377.572 244.434 377.351C244.289 376.814 244.136 376.279 243.965 375.743C243.92 375.6 243.888 375.456 243.84 375.314C243.771 375.105 243.684 374.899 243.611 374.691C243.457 374.249 243.297 373.809 243.126 373.37C243.058 373.193 243.002 373.014 242.931 372.838C242.854 372.647 242.762 372.46 242.682 372.27C242.512 371.866 242.336 371.464 242.154 371.065C242.067 370.874 241.992 370.679 241.902 370.489C241.818 370.313 241.722 370.142 241.636 369.967C241.44 369.567 241.238 369.172 241.03 368.777C240.927 368.581 240.835 368.38 240.729 368.185C240.644 368.029 240.547 367.88 240.46 367.726C240.225 367.306 239.982 366.894 239.734 366.482C239.611 366.279 239.499 366.068 239.373 365.866C239.298 365.746 239.214 365.634 239.138 365.515C238.818 365.015 238.486 364.526 238.149 364.041C238.013 363.845 237.889 363.64 237.75 363.447C237.707 363.387 237.658 363.333 237.614 363.273C237.021 362.456 236.403 361.666 235.762 360.901C235.731 360.864 235.703 360.822 235.672 360.785C235.483 360.563 235.283 360.359 235.091 360.142C234.763 359.771 234.437 359.399 234.099 359.045C233.851 358.785 233.594 358.541 233.341 358.291C233.007 357.96 232.675 357.629 232.332 357.316C232.259 357.248 232.189 357.173 232.115 357.106C231.99 356.994 231.857 356.902 231.731 356.792C231.171 356.303 230.601 355.839 230.022 355.399C229.805 355.234 229.59 355.069 229.371 354.911C228.623 354.367 227.848 353.861 227.049 353.396C226.941 353.334 226.833 353.273 226.725 353.214C226.479 353.078 226.241 352.979 225.998 352.855C225.657 352.682 225.314 352.501 224.978 352.352C224.685 352.222 224.4 352.12 224.112 352.008C223.783 351.881 223.453 351.747 223.13 351.643C223.065 351.622 222.998 351.589 222.933 351.569C222.495 351.433 222.064 351.323 221.638 351.229C221.55 351.21 221.465 351.198 221.377 351.18C221.119 351.128 220.858 351.073 220.605 351.036C220.405 351.007 220.211 350.992 220.015 350.973C219.942 350.966 219.869 350.955 219.797 350.95C219.432 350.92 219.072 350.902 218.72 350.906C218.645 350.906 218.576 350.922 218.502 350.924C218.195 350.933 217.899 350.967 217.602 351.001C217.43 351.021 217.248 351.018 217.079 351.046C217.022 351.055 216.971 351.077 216.914 351.087C216.643 351.137 216.384 351.212 216.122 351.284C215.946 351.332 215.76 351.359 215.588 351.417C215.543 351.432 215.503 351.457 215.458 351.473C215.194 351.567 214.946 351.688 214.694 351.804C214.531 351.88 214.357 351.934 214.199 352.019C214.131 352.055 214.064 352.093 213.998 352.131L204.288 357.69C204.51 357.563 204.752 357.471 204.985 357.364Z"/>
</mask>
<path d="M204.985 357.364C205.236 357.247 205.484 357.126 205.748 357.033C205.963 356.956 206.19 356.904 206.413 356.843C206.674 356.772 206.933 356.696 207.204 356.646C207.428 356.605 207.662 356.587 207.893 356.561C208.189 356.527 208.485 356.493 208.792 356.484C209.224 356.468 209.656 356.477 210.087 356.509C210.159 356.515 210.232 356.525 210.304 356.532C210.761 356.578 211.216 356.648 211.666 356.739C211.754 356.757 211.84 356.769 211.929 356.789C212.417 356.896 212.916 357.039 213.42 357.202C213.742 357.306 214.073 357.44 214.402 357.567C214.69 357.679 214.976 357.782 215.268 357.912C215.604 358.061 215.947 358.241 216.288 358.414C216.638 358.592 216.984 358.752 217.339 358.955C218.138 359.421 218.913 359.927 219.661 360.471C219.88 360.628 220.096 360.794 220.312 360.958C220.891 361.398 221.461 361.863 222.021 362.352C222.221 362.527 222.424 362.694 222.622 362.875C222.964 363.188 223.298 363.52 223.632 363.85C223.884 364.101 224.141 364.345 224.389 364.604C224.727 364.959 225.053 365.331 225.381 365.701C225.605 365.954 225.834 366.2 226.052 366.46C226.694 367.223 227.311 368.017 227.905 368.834C228.087 369.084 228.259 369.343 228.437 369.597C228.775 370.083 229.108 370.573 229.428 371.074C229.631 371.393 229.828 371.717 230.024 372.042C230.271 372.453 230.515 372.866 230.75 373.285C230.945 373.633 231.135 373.984 231.32 374.336C231.528 374.731 231.73 375.127 231.926 375.526C232.104 375.89 232.277 376.256 232.444 376.623C232.626 377.024 232.803 377.427 232.973 377.831C233.126 378.195 233.273 378.56 233.415 378.927C233.586 379.367 233.748 379.81 233.902 380.253C234.024 380.602 234.143 380.951 234.255 381.301C234.426 381.837 234.579 382.374 234.724 382.91C234.806 383.21 234.892 383.51 234.965 383.809C235.203 384.783 235.401 385.754 235.55 386.719C235.623 387.198 235.675 387.673 235.725 388.148C235.751 388.392 235.789 388.638 235.808 388.881C235.867 389.61 235.901 390.333 235.901 391.047C235.901 397.005 233.797 401.194 230.401 403.139L240.111 397.579C243.507 395.635 245.611 391.446 245.611 385.487C245.611 384.774 245.577 384.051 245.518 383.321C245.499 383.079 245.461 382.833 245.435 382.589C245.39 382.162 245.354 381.738 245.29 381.308C245.282 381.259 245.267 381.209 245.26 381.159C245.111 380.195 244.913 379.224 244.675 378.25C244.656 378.171 244.648 378.094 244.628 378.015C244.572 377.794 244.494 377.572 244.434 377.351C244.289 376.814 244.136 376.279 243.965 375.743C243.92 375.6 243.888 375.456 243.84 375.314C243.771 375.105 243.684 374.899 243.611 374.691C243.457 374.249 243.297 373.809 243.126 373.37C243.058 373.193 243.002 373.014 242.931 372.838C242.854 372.647 242.762 372.46 242.682 372.27C242.512 371.866 242.336 371.464 242.154 371.065C242.067 370.874 241.992 370.679 241.902 370.489C241.818 370.313 241.722 370.142 241.636 369.967C241.44 369.567 241.238 369.172 241.03 368.777C240.927 368.581 240.835 368.38 240.729 368.185C240.644 368.029 240.547 367.88 240.46 367.726C240.225 367.306 239.982 366.894 239.734 366.482C239.611 366.279 239.499 366.068 239.373 365.866C239.298 365.746 239.214 365.634 239.138 365.515C238.818 365.015 238.486 364.526 238.149 364.041C238.013 363.845 237.889 363.64 237.75 363.447C237.707 363.387 237.658 363.333 237.614 363.273C237.021 362.456 236.403 361.666 235.762 360.901C235.731 360.864 235.703 360.822 235.672 360.785C235.483 360.563 235.283 360.359 235.091 360.142C234.763 359.771 234.437 359.399 234.099 359.045C233.851 358.785 233.594 358.541 233.341 358.291C233.007 357.96 232.675 357.629 232.332 357.316C232.259 357.248 232.189 357.173 232.115 357.106C231.99 356.994 231.857 356.902 231.731 356.792C231.171 356.303 230.601 355.839 230.022 355.399C229.805 355.234 229.59 355.069 229.371 354.911C228.623 354.367 227.848 353.861 227.049 353.396C226.941 353.334 226.833 353.273 226.725 353.214C226.479 353.078 226.241 352.979 225.998 352.855C225.657 352.682 225.314 352.501 224.978 352.352C224.685 352.222 224.4 352.12 224.112 352.008C223.783 351.881 223.453 351.747 223.13 351.643C223.065 351.622 222.998 351.589 222.933 351.569C222.495 351.433 222.064 351.323 221.638 351.229C221.55 351.21 221.465 351.198 221.377 351.18C221.119 351.128 220.858 351.073 220.605 351.036C220.405 351.007 220.211 350.992 220.015 350.973C219.942 350.966 219.869 350.955 219.797 350.95C219.432 350.92 219.072 350.902 218.72 350.906C218.645 350.906 218.576 350.922 218.502 350.924C218.195 350.933 217.899 350.967 217.602 351.001C217.43 351.021 217.248 351.018 217.079 351.046C217.022 351.055 216.971 351.077 216.914 351.087C216.643 351.137 216.384 351.212 216.122 351.284C215.946 351.332 215.76 351.359 215.588 351.417C215.543 351.432 215.503 351.457 215.458 351.473C215.194 351.567 214.946 351.688 214.694 351.804C214.531 351.88 214.357 351.934 214.199 352.019C214.131 352.055 214.064 352.093 213.998 352.131L204.288 357.69C204.51 357.563 204.752 357.471 204.985 357.364Z" fill="#FBC977" stroke="#231F20" stroke-width="2" mask="url(#path-76-inside-2_821_6821)"/>
<path d="M199.286 369.798C199.286 363.976 201.321 360.003 204.471 358.162C207.619 356.322 212.058 356.508 217.091 359.39C222.121 362.27 226.705 367.256 230.031 373.008C233.358 378.759 235.401 385.229 235.401 391.047C235.401 396.864 233.364 400.832 230.212 402.671C227.061 404.509 222.62 404.321 217.587 401.44C212.557 398.56 207.976 393.575 204.651 387.826C201.327 382.077 199.286 375.611 199.286 369.798Z" fill="#F89D1F" stroke="#231F20"/>
<path d="M227.212 397.74C232.663 394.619 232.706 384.473 227.308 375.079C221.91 365.685 213.115 360.6 207.664 363.721C202.213 366.842 202.17 376.987 207.568 386.382C212.966 395.776 221.761 400.861 227.212 397.74Z" fill="#C8B482"/>
<mask id="path-79-inside-3_821_6821" fill="white">
<path d="M188.111 419.569C190.652 418.113 192.226 414.978 192.23 410.514C192.227 409.981 192.204 409.442 192.156 408.895C192.141 408.713 192.118 408.526 192.096 408.347C192.057 407.99 192.018 407.633 191.965 407.28C191.853 406.553 191.704 405.828 191.528 405.099C191.471 404.876 191.408 404.654 191.347 404.428C191.239 404.025 191.124 403.625 190.997 403.223C190.911 402.959 190.822 402.698 190.729 402.436C190.614 402.107 190.495 401.775 190.369 401.446C190.262 401.175 190.153 400.898 190.035 400.626C189.907 400.32 189.774 400.022 189.641 399.725C189.514 399.448 189.387 399.172 189.252 398.898C189.105 398.604 188.954 398.307 188.802 398.011C188.662 397.746 188.52 397.485 188.374 397.221C188.195 396.909 188.014 396.602 187.828 396.292C187.68 396.051 187.535 395.806 187.384 395.57C187.143 395.192 186.893 394.827 186.643 394.462C186.509 394.271 186.381 394.078 186.244 393.892C185.795 393.281 185.337 392.688 184.853 392.117C184.691 391.922 184.519 391.733 184.347 391.545C184.106 391.268 183.865 390.992 183.612 390.727C183.426 390.53 183.233 390.347 183.042 390.16C182.795 389.915 182.545 389.664 182.29 389.433C182.143 389.295 181.988 389.17 181.835 389.04C181.652 388.881 181.469 388.722 181.284 388.567C181.042 388.374 180.801 388.181 180.559 388C180.397 387.877 180.237 387.749 180.073 387.63C179.505 387.226 178.927 386.839 178.335 386.497C178.07 386.345 177.811 386.225 177.547 386.091C177.293 385.962 177.036 385.827 176.787 385.719C176.568 385.622 176.35 385.545 176.134 385.462C175.892 385.364 175.645 385.264 175.404 385.184C175.256 385.141 175.114 385.107 174.963 385.068C174.573 384.952 174.176 384.86 173.775 384.795C173.607 384.764 173.437 384.738 173.271 384.714C172.99 384.683 172.717 384.669 172.446 384.662C172.277 384.654 172.103 384.644 171.938 384.65C171.713 384.658 171.488 384.677 171.264 384.709C171.091 384.729 170.916 384.742 170.75 384.771C170.549 384.81 170.351 384.859 170.156 384.919C169.986 384.964 169.819 385.005 169.655 385.06C169.458 385.132 169.274 385.223 169.086 385.311C168.909 385.388 168.731 385.459 168.563 385.553L207.675 363.716C207.725 363.692 207.773 363.66 207.824 363.635C207.943 363.573 208.076 363.529 208.198 363.474C208.386 363.386 208.57 363.295 208.767 363.223C208.8 363.212 208.832 363.198 208.863 363.183C208.995 363.14 209.134 363.118 209.265 363.086C209.46 363.025 209.658 362.976 209.859 362.939C209.902 362.928 209.94 362.914 209.982 362.902C210.106 362.884 210.243 362.886 210.376 362.873C210.596 362.844 210.818 362.823 211.05 362.813C211.104 362.814 211.153 362.801 211.214 362.8C211.323 362.797 211.442 362.818 211.558 362.825C211.833 362.83 212.108 362.849 212.381 362.882C212.464 362.893 212.541 362.884 212.624 362.896C212.706 362.908 212.799 362.944 212.882 362.956C213.273 363.025 213.669 363.116 214.075 363.231C214.173 363.258 214.266 363.263 214.366 363.297C214.416 363.314 214.463 363.335 214.513 363.352C214.755 363.432 215.001 363.532 215.247 363.625C215.462 363.708 215.676 363.783 215.899 363.882C216.146 363.994 216.402 364.13 216.661 364.262C216.841 364.354 217.02 364.427 217.202 364.526L217.445 364.665C218.044 365.011 218.624 365.389 219.182 365.798C219.347 365.917 219.509 366.04 219.671 366.163C219.775 366.241 219.877 366.324 219.983 366.409C220.312 366.658 220.634 366.928 220.952 367.206C221.042 367.288 221.14 367.356 221.235 367.441C221.29 367.491 221.342 367.545 221.397 367.594C221.655 367.832 221.907 368.079 222.161 368.333C222.347 368.518 222.536 368.698 222.719 368.887C222.977 369.155 223.22 369.439 223.465 369.718C223.611 369.879 223.758 370.029 223.896 370.193C223.921 370.221 223.944 370.25 223.965 370.28C224.444 370.849 224.907 371.444 225.351 372.052C225.383 372.101 225.42 372.14 225.455 372.184C225.557 372.326 225.648 372.48 225.748 372.627C226.005 372.99 226.252 373.36 226.496 373.733C226.551 373.825 226.611 373.907 226.669 373.994C226.764 374.15 226.847 374.306 226.938 374.46C227.126 374.765 227.307 375.072 227.479 375.386C227.548 375.504 227.62 375.617 227.685 375.732C227.762 375.878 227.83 376.03 227.911 376.179C228.066 376.471 228.217 376.767 228.362 377.065C228.423 377.196 228.499 377.324 228.561 377.455C228.629 377.596 228.688 377.743 228.749 377.886C228.886 378.186 229.016 378.488 229.147 378.79C229.208 378.933 229.276 379.073 229.333 379.213C229.383 379.344 229.426 379.476 229.476 379.607C229.607 379.939 229.726 380.27 229.843 380.606C229.899 380.758 229.959 380.912 230.013 381.068C230.048 381.172 230.069 381.28 230.105 381.384C230.236 381.788 230.349 382.193 230.459 382.592C230.5 382.758 230.56 382.924 230.601 383.091C230.616 383.148 230.624 383.206 230.637 383.267C230.816 383.991 230.963 384.721 231.073 385.441C231.079 385.481 231.089 385.516 231.098 385.551C231.144 385.876 231.171 386.19 231.203 386.507C231.223 386.692 231.253 386.876 231.268 387.058C231.312 387.603 231.339 388.144 231.335 388.679C231.338 393.141 229.762 396.281 227.221 397.737L188.111 419.569Z"/>
</mask>
<path d="M188.111 419.569C190.652 418.113 192.226 414.978 192.23 410.514C192.227 409.981 192.204 409.442 192.156 408.895C192.141 408.713 192.118 408.526 192.096 408.347C192.057 407.99 192.018 407.633 191.965 407.28C191.853 406.553 191.704 405.828 191.528 405.099C191.471 404.876 191.408 404.654 191.347 404.428C191.239 404.025 191.124 403.625 190.997 403.223C190.911 402.959 190.822 402.698 190.729 402.436C190.614 402.107 190.495 401.775 190.369 401.446C190.262 401.175 190.153 400.898 190.035 400.626C189.907 400.32 189.774 400.022 189.641 399.725C189.514 399.448 189.387 399.172 189.252 398.898C189.105 398.604 188.954 398.307 188.802 398.011C188.662 397.746 188.52 397.485 188.374 397.221C188.195 396.909 188.014 396.602 187.828 396.292C187.68 396.051 187.535 395.806 187.384 395.57C187.143 395.192 186.893 394.827 186.643 394.462C186.509 394.271 186.381 394.078 186.244 393.892C185.795 393.281 185.337 392.688 184.853 392.117C184.691 391.922 184.519 391.733 184.347 391.545C184.106 391.268 183.865 390.992 183.612 390.727C183.426 390.53 183.233 390.347 183.042 390.16C182.795 389.915 182.545 389.664 182.29 389.433C182.143 389.295 181.988 389.17 181.835 389.04C181.652 388.881 181.469 388.722 181.284 388.567C181.042 388.374 180.801 388.181 180.559 388C180.397 387.877 180.237 387.749 180.073 387.63C179.505 387.226 178.927 386.839 178.335 386.497C178.07 386.345 177.811 386.225 177.547 386.091C177.293 385.962 177.036 385.827 176.787 385.719C176.568 385.622 176.35 385.545 176.134 385.462C175.892 385.364 175.645 385.264 175.404 385.184C175.256 385.141 175.114 385.107 174.963 385.068C174.573 384.952 174.176 384.86 173.775 384.795C173.607 384.764 173.437 384.738 173.271 384.714C172.99 384.683 172.717 384.669 172.446 384.662C172.277 384.654 172.103 384.644 171.938 384.65C171.713 384.658 171.488 384.677 171.264 384.709C171.091 384.729 170.916 384.742 170.75 384.771C170.549 384.81 170.351 384.859 170.156 384.919C169.986 384.964 169.819 385.005 169.655 385.06C169.458 385.132 169.274 385.223 169.086 385.311C168.909 385.388 168.731 385.459 168.563 385.553L207.675 363.716C207.725 363.692 207.773 363.66 207.824 363.635C207.943 363.573 208.076 363.529 208.198 363.474C208.386 363.386 208.57 363.295 208.767 363.223C208.8 363.212 208.832 363.198 208.863 363.183C208.995 363.14 209.134 363.118 209.265 363.086C209.46 363.025 209.658 362.976 209.859 362.939C209.902 362.928 209.94 362.914 209.982 362.902C210.106 362.884 210.243 362.886 210.376 362.873C210.596 362.844 210.818 362.823 211.05 362.813C211.104 362.814 211.153 362.801 211.214 362.8C211.323 362.797 211.442 362.818 211.558 362.825C211.833 362.83 212.108 362.849 212.381 362.882C212.464 362.893 212.541 362.884 212.624 362.896C212.706 362.908 212.799 362.944 212.882 362.956C213.273 363.025 213.669 363.116 214.075 363.231C214.173 363.258 214.266 363.263 214.366 363.297C214.416 363.314 214.463 363.335 214.513 363.352C214.755 363.432 215.001 363.532 215.247 363.625C215.462 363.708 215.676 363.783 215.899 363.882C216.146 363.994 216.402 364.13 216.661 364.262C216.841 364.354 217.02 364.427 217.202 364.526L217.445 364.665C218.044 365.011 218.624 365.389 219.182 365.798C219.347 365.917 219.509 366.04 219.671 366.163C219.775 366.241 219.877 366.324 219.983 366.409C220.312 366.658 220.634 366.928 220.952 367.206C221.042 367.288 221.14 367.356 221.235 367.441C221.29 367.491 221.342 367.545 221.397 367.594C221.655 367.832 221.907 368.079 222.161 368.333C222.347 368.518 222.536 368.698 222.719 368.887C222.977 369.155 223.22 369.439 223.465 369.718C223.611 369.879 223.758 370.029 223.896 370.193C223.921 370.221 223.944 370.25 223.965 370.28C224.444 370.849 224.907 371.444 225.351 372.052C225.383 372.101 225.42 372.14 225.455 372.184C225.557 372.326 225.648 372.48 225.748 372.627C226.005 372.99 226.252 373.36 226.496 373.733C226.551 373.825 226.611 373.907 226.669 373.994C226.764 374.15 226.847 374.306 226.938 374.46C227.126 374.765 227.307 375.072 227.479 375.386C227.548 375.504 227.62 375.617 227.685 375.732C227.762 375.878 227.83 376.03 227.911 376.179C228.066 376.471 228.217 376.767 228.362 377.065C228.423 377.196 228.499 377.324 228.561 377.455C228.629 377.596 228.688 377.743 228.749 377.886C228.886 378.186 229.016 378.488 229.147 378.79C229.208 378.933 229.276 379.073 229.333 379.213C229.383 379.344 229.426 379.476 229.476 379.607C229.607 379.939 229.726 380.27 229.843 380.606C229.899 380.758 229.959 380.912 230.013 381.068C230.048 381.172 230.069 381.28 230.105 381.384C230.236 381.788 230.349 382.193 230.459 382.592C230.5 382.758 230.56 382.924 230.601 383.091C230.616 383.148 230.624 383.206 230.637 383.267C230.816 383.991 230.963 384.721 231.073 385.441C231.079 385.481 231.089 385.516 231.098 385.551C231.144 385.876 231.171 386.19 231.203 386.507C231.223 386.692 231.253 386.876 231.268 387.058C231.312 387.603 231.339 388.144 231.335 388.679C231.338 393.141 229.762 396.281 227.221 397.737L188.111 419.569Z" fill="#F9C166" stroke="#231F20" stroke-width="2" mask="url(#path-79-inside-3_821_6821)"/>
<path d="M188.111 419.571C193.562 416.45 193.605 406.304 188.207 396.91C182.809 387.516 174.014 382.431 168.563 385.552C163.112 388.673 163.069 398.819 168.467 408.213C173.864 417.607 182.659 422.692 188.111 419.571Z" fill="#C8B482"/>
<path d="M227.221 397.736L190.362 418.312C190.61 418.016 190.839 417.696 191.05 417.356M227.221 397.736C229.714 396.308 231.279 393.257 231.334 388.926L230.828 389.209M227.221 397.736L226.977 397.3L226.975 397.301C229.208 396.02 230.711 393.272 230.828 389.209M227.221 397.736L226.972 397.303L191.05 417.356M230.828 389.209C230.833 389.035 230.835 388.858 230.835 388.679L230.835 388.675C230.835 388.66 230.835 388.646 230.835 388.632L192.215 410.191M230.828 389.209L192.73 410.476M192.215 410.191C192.216 410.24 192.219 410.29 192.223 410.34C192.226 410.398 192.23 410.456 192.23 410.514C192.227 413.705 191.422 416.217 190.035 417.922L191.05 417.356M192.215 410.191L192.395 410.513L192.395 410.514L192.459 410.627L192.662 410.514L192.667 410.511L192.73 410.476M192.215 410.191L192.715 410.18C192.716 410.219 192.718 410.259 192.722 410.312L192.722 410.321C192.725 410.366 192.728 410.42 192.73 410.476M191.05 417.356C192.132 415.607 192.728 413.286 192.73 410.514L192.73 410.511C192.73 410.499 192.73 410.488 192.73 410.476" fill="#F28F2C" stroke="#231F20"/>
<path d="M185.948 442.413C190.301 440.802 194.513 438.835 198.542 436.532C220.335 423.973 226.373 405.751 216.633 390.092C212.962 384.19 207.049 378.649 198.888 373.918C189.732 368.605 178.809 364.926 167.201 362.88C141.038 358.262 111.388 361.939 90.6061 373.917C89.4728 374.571 88.3815 375.241 87.3322 375.925C60.6362 393.316 61.5729 419.895 90.2453 436.53C116.166 451.564 156.217 453.526 185.948 442.413Z" fill="#FF8666"/>
<path d="M185.774 441.944L185.773 441.944C156.164 453.012 116.271 451.047 90.4962 436.098C76.2487 427.831 68.9962 417.158 68.5251 406.489C68.0542 395.824 74.3504 384.978 87.6051 376.344L87.6052 376.344C88.6467 375.665 89.7303 375 90.8561 374.35C111.515 362.444 141.04 358.77 167.114 363.372L167.114 363.372C178.677 365.41 189.541 369.073 198.637 374.35L198.637 374.35C206.745 379.051 212.59 384.538 216.208 390.356L216.633 390.092L216.208 390.356C221.002 398.062 221.903 406.371 218.944 414.3C215.98 422.243 209.121 429.858 198.294 436.098C194.289 438.388 190.102 440.343 185.774 441.944Z" fill="#FBC977" stroke="#231F20"/>
<path d="M68 405.446L68.0314 416.503C68.0634 427.76 75.4739 454.126 90.2767 462.713C120.084 480.004 168.572 464.878 198.575 447.587C213.67 438.888 221.208 442.595 221.176 431.194L221.144 405.011C221.177 416.412 213.639 427.831 198.543 436.531C168.541 453.821 120.052 453.821 90.2453 436.53C75.4425 427.943 68.032 416.704 68 405.446Z" fill="#D69746"/>
<path d="M189.306 379.441C213.816 393.659 213.677 416.791 189.015 431.004C164.345 445.222 124.346 445.222 99.8359 431.004C75.3337 416.79 75.4563 393.659 100.127 379.441C124.789 365.228 164.803 365.228 189.306 379.441ZM183.459 427.781C205.038 415.345 205.16 395.105 183.714 382.664C162.275 370.228 127.261 370.228 105.682 382.664C84.0956 395.104 83.9893 415.345 105.428 427.781C126.874 440.222 161.873 440.222 183.459 427.781Z" fill="#F7931A"/>
<path d="M198.793 436.964C210.803 430.042 218.13 421.365 220.653 412.278L220.676 431.194L220.676 431.195C220.707 442.354 213.329 453.633 198.325 462.28C196.927 463.086 195.48 463.848 193.999 464.578L193.999 439.493C195.638 438.694 197.243 437.857 198.793 436.964Z" fill="#F7931A" stroke="#231F20" stroke-linecap="round" stroke-linejoin="bevel"/>
<path d="M141.498 475.147L141.498 449.964C159.668 450.348 178.058 447.02 192.999 439.973L192.999 465.064C178.14 472.168 159.723 475.539 141.498 475.147Z" fill="#F89D1F" stroke="#231F20"/>
<path d="M94.5237 464.424L94.5237 439.374C107.811 445.948 124.044 449.469 140.498 449.94L140.498 475.122C123.98 474.641 107.726 471.066 94.5237 464.424Z" fill="#F9B142" stroke="#231F20"/>
<path d="M68.5314 431.628L68.5086 412.626C71.0209 421.587 78.2171 430.131 89.9944 436.963C91.1431 437.629 92.3265 438.259 93.5237 438.87L93.5237 463.913C92.504 463.386 91.5015 462.846 90.5276 462.281C75.8162 453.747 68.5627 442.646 68.5314 431.628Z" fill="#F9C166" stroke="#231F20"/>
</g>
</g>
<g clip-path="url(#clip3_821_6821)">
<path d="M386.286 144.985C385.097 142.304 383.48 139.834 381.497 137.673C384.776 137.097 386.467 134.718 386.572 130.535C386.665 126.72 385.392 122.776 382.754 118.702C380.305 114.809 376.936 111.578 372.944 109.294L370.794 108.083L370.982 100.409L366.222 97.727L366.034 105.4L363.905 104.201L364.093 96.5277L359.333 93.8451L359.145 101.519L355.61 99.5268L354.024 98.6333L344.855 93.4668L344.673 100.915L353.842 106.081L353.026 139.456L343.857 134.29L343.675 141.738L352.844 146.904L354.43 147.798L357.966 149.79L357.79 156.963L362.55 159.645L362.726 152.472L364.854 153.672L364.679 160.844L369.439 163.526L369.614 156.354L373.261 158.409C377.254 160.658 380.666 161.253 383.499 160.193C386.331 159.131 387.795 156.624 387.892 152.671C387.929 150.022 387.381 147.398 386.286 144.985ZM377.074 121.024C378.151 122.661 378.728 124.578 378.732 126.538C378.688 128.331 378.062 129.504 376.853 130.057C375.643 130.611 374.176 130.402 372.452 129.43L361.358 123.179L361.668 110.491L372.762 116.742C374.545 117.772 376.031 119.247 377.074 121.024ZM378.086 151.585C376.806 152.192 375.259 151.985 373.444 150.961L360.852 143.866L361.183 130.351L373.774 137.446C375.661 138.54 377.229 140.11 378.32 141.999C379.456 143.739 380.065 145.769 380.074 147.847C380.028 149.732 379.365 150.978 378.086 151.585Z" fill="#1A1E42"/>
</g>
<path d="M249.686 541.532L249.68 530.31C249.68 530.141 249.635 529.975 249.551 529.829C249.467 529.682 249.346 529.561 249.2 529.476L235.529 521.53C235.382 521.445 235.216 521.401 235.047 521.4H215.645C215.476 521.4 215.31 521.445 215.164 521.529L201.459 529.475C201.313 529.56 201.191 529.682 201.107 529.829C201.023 529.975 200.978 530.142 200.979 530.311V546.892C200.978 547.061 201.023 547.227 201.107 547.374C201.191 547.52 201.313 547.642 201.459 547.727L215.164 555.678C215.186 555.691 215.21 555.696 215.233 555.707C215.26 555.72 215.287 555.731 215.315 555.741C215.42 555.783 215.532 555.806 215.645 555.808H235.047C235.16 555.806 235.273 555.783 235.378 555.741C235.405 555.731 235.431 555.721 235.457 555.708C235.481 555.697 235.506 555.692 235.529 555.678L249.206 547.727C249.352 547.642 249.473 547.52 249.557 547.373C249.641 547.227 249.686 547.061 249.686 546.892V541.533L249.686 541.533L249.686 541.532Z" fill="#231F20"/>
<path d="M235.047 554.843L248.724 546.891V541.533L232.827 546.124L235.047 554.843Z" fill="#F9C166"/>
<path d="M215.645 554.843L201.94 546.891V541.533L217.586 546.668L215.645 554.843Z" fill="#F9C166"/>
<path d="M215.645 554.844H235.047V549.478L225.903 546.124L215.645 549.478V554.844Z" fill="#FDB45C"/>
<path d="M201.94 541.534L215.645 549.478H235.047L248.724 541.534L248.719 530.312L235.047 522.365H215.645L201.94 530.312V541.534Z" fill="#FBD9A2"/>
<path d="M204.172 530.819V532.137L216.581 524.949H234.104L246.505 532.137V530.819L234.104 523.67L216.581 523.672L204.172 530.819Z" fill="#FDB45C"/>
<path d="M204.171 532.137V541.01L216.581 548.201H234.103L246.504 541.001V532.137L234.103 524.949H216.581L204.171 532.137Z" fill="#F9C166"/>
<path d="M229.423 538.777C229.537 538.574 229.601 538.346 229.609 538.113C229.617 537.88 229.569 537.649 229.469 537.438C230.781 537.517 232.088 537.215 233.232 536.569C234.245 535.987 234.77 535.324 234.807 534.579C234.843 533.835 234.398 533.207 233.473 532.693L232.963 532.411L235 531.24L233.871 530.614L231.834 531.785L231.329 531.505L233.366 530.334L232.237 529.708L230.201 530.879L229.362 530.414L228.985 530.206L226.811 529L224.834 530.137L227.009 531.342L218.151 536.434L215.977 535.228L214 536.365L216.175 537.57L216.551 537.779L217.39 538.244L215.486 539.338L216.615 539.964L218.519 538.869L219.023 539.149L217.12 540.243L218.249 540.869L220.153 539.775L221.018 540.255C222.08 540.805 223.271 541.059 224.466 540.989C225.728 540.977 226.966 540.647 228.068 540.03C228.629 539.749 229.099 539.314 229.423 538.777ZM232.045 534.681C231.996 534.885 231.9 535.074 231.764 535.234C231.629 535.394 231.459 535.521 231.266 535.603C230.771 535.882 230.216 536.039 229.648 536.059C229.124 536.106 228.598 536.004 228.129 535.765L225.498 534.307L228.865 532.371L231.497 533.83C231.906 534.056 232.088 534.34 232.045 534.681ZM224.605 539.423C224.05 539.476 223.491 539.371 222.994 539.119L220.008 537.463L223.595 535.401L226.581 537.057C226.761 537.124 226.915 537.249 227.017 537.413C227.12 537.576 227.166 537.768 227.149 537.96C227.095 538.176 226.992 538.376 226.849 538.546C226.705 538.715 226.525 538.849 226.321 538.938C225.795 539.232 225.207 539.399 224.605 539.423Z" fill="#1A1E42"/>
<path d="M579.361 590.406C579.497 590.169 579.572 589.904 579.582 589.632C579.591 589.36 579.534 589.09 579.416 588.845C580.977 588.937 582.533 588.585 583.896 587.831C585.101 587.152 585.726 586.378 585.77 585.509C585.813 584.641 585.284 583.908 584.182 583.309L583.575 582.979L586 581.613L584.656 580.883L582.231 582.249L581.63 581.922L584.055 580.557L582.711 579.826L580.286 581.192L579.288 580.65L578.84 580.407L576.251 579L573.898 580.326L576.487 581.732L565.942 587.673L563.353 586.266L561 587.592L563.589 588.998L564.037 589.242L565.035 589.784L562.769 591.061L564.113 591.791L566.379 590.514L566.98 590.841L564.714 592.117L566.058 592.848L568.325 591.571L569.354 592.131C570.619 592.773 572.037 593.069 573.459 592.987C574.962 592.973 576.436 592.588 577.747 591.868C578.415 591.54 578.975 591.033 579.361 590.406ZM582.482 585.628C582.423 585.866 582.309 586.087 582.148 586.273C581.987 586.46 581.784 586.608 581.555 586.704C580.965 587.029 580.304 587.212 579.628 587.236C579.005 587.291 578.378 587.172 577.82 586.893L574.688 585.191L578.697 582.933L581.829 584.634C582.316 584.899 582.534 585.23 582.482 585.628ZM573.625 591.16C572.964 591.222 572.299 591.099 571.707 590.805L568.152 588.873L572.422 586.468L575.977 588.399C576.192 588.478 576.375 588.624 576.497 588.815C576.619 589.005 576.674 589.23 576.654 589.454C576.59 589.705 576.467 589.939 576.296 590.137C576.125 590.334 575.91 590.491 575.668 590.594C575.042 590.938 574.342 591.132 573.625 591.16Z" fill="#1A1E42"/>
<g opacity="0.3" filter="url(#filter4_f_821_6821)">
<path d="M287.015 624.762V640.911L308.749 654H339.436L361.155 640.895V624.762L339.436 611.68H308.749L287.015 624.762Z" fill="#010101"/>
</g>
<path d="M288.899 631.273L309.496 643.212H338.656L359.211 631.273L359.203 614.408L338.656 602.465H309.496L288.899 614.408V631.273Z" fill="#FCE0BF"/>
<path d="M360.656 631.271L360.648 614.406C360.648 614.152 360.581 613.903 360.455 613.683C360.328 613.463 360.146 613.28 359.927 613.153L339.38 601.211C339.16 601.083 338.91 601.016 338.656 601.016H309.497C309.243 601.015 308.993 601.082 308.773 601.21L288.177 613.152C287.957 613.279 287.775 613.462 287.648 613.683C287.521 613.903 287.455 614.153 287.455 614.407V639.326C287.455 639.581 287.521 639.831 287.648 640.051C287.775 640.271 287.957 640.454 288.177 640.581L308.773 652.531C308.807 652.551 308.844 652.559 308.878 652.575C308.919 652.595 308.959 652.611 309.001 652.627C309.159 652.689 309.327 652.723 309.497 652.727H338.656C338.827 652.723 338.995 652.689 339.154 652.626C339.195 652.611 339.233 652.596 339.272 652.577C339.308 652.56 339.346 652.552 339.381 652.531L359.936 640.581C360.155 640.454 360.337 640.271 360.463 640.05C360.59 639.83 360.656 639.581 360.656 639.326V631.273L360.656 631.272L360.656 631.271Z" fill="#231F20"/>
<path d="M338.657 651.277L359.211 639.326V631.273L335.32 638.173L338.657 651.277Z" fill="#F9C166"/>
<path d="M309.496 651.277L288.899 639.326V631.273L312.415 638.991L309.496 651.277Z" fill="#F9C166"/>
<path d="M309.496 651.278H338.656V643.213L324.914 638.173L309.496 643.213V651.278Z" fill="#FDB45C"/>
<path d="M288.899 631.273L309.496 643.212H338.656L359.211 631.273L359.203 614.408L338.656 602.465H309.496L288.899 614.408V631.273Z" fill="#FBD9A2"/>
<path d="M292.253 617.151V630.486L310.904 641.294H337.238L355.875 630.473V617.151L337.238 606.349H310.904L292.253 617.151Z" fill="#F9C166"/>
<path d="M292.253 615.17V617.151L310.904 606.348H337.238L355.875 617.151V615.17L337.238 604.426L310.904 604.429L292.253 615.17Z" fill="#FDB45C"/>
<g clip-path="url(#clip4_821_6821)">
<path d="M319.849 624.374L337.032 614.454L332.946 627.721L319.849 624.374Z" fill="#1A1E42"/>
<path d="M318.126 625.369L308.448 630.956L331.237 628.708L318.126 625.369Z" fill="#1A1E42"/>
<path d="M319.849 624.374L337.032 614.454L314.051 616.813L319.849 624.374Z" fill="#272C59"/>
<path d="M318.126 625.369L308.447 630.956L312.342 617.8L318.126 625.369Z" fill="#272C59"/>
</g>
<path d="M550.096 518.401L550.092 510.273C550.092 510.151 550.06 510.03 549.999 509.924C549.938 509.818 549.85 509.73 549.745 509.669L539.842 503.914C539.736 503.852 539.616 503.819 539.493 503.819H525.439C525.317 503.819 525.197 503.851 525.091 503.913L515.164 509.668C515.058 509.73 514.97 509.818 514.909 509.924C514.848 510.031 514.816 510.151 514.816 510.274V522.284C514.816 522.406 514.848 522.527 514.909 522.633C514.97 522.739 515.058 522.827 515.164 522.888L525.091 528.648C525.107 528.657 525.125 528.661 525.141 528.669C525.161 528.679 525.18 528.686 525.201 528.694C525.277 528.724 525.357 528.74 525.439 528.742H539.493C539.575 528.74 539.656 528.724 539.733 528.694C539.753 528.686 539.771 528.679 539.79 528.67C539.807 528.662 539.826 528.658 539.842 528.648L549.749 522.888C549.855 522.827 549.942 522.739 550.003 522.633C550.064 522.527 550.096 522.406 550.096 522.284V518.402L550.096 518.402L550.096 518.401Z" fill="#231F20"/>
<path d="M539.493 528.043L549.4 522.283V518.402L537.885 521.727L539.493 528.043Z" fill="#F9C166"/>
<path d="M525.439 528.043L515.512 522.283V518.402L526.846 522.122L525.439 528.043Z" fill="#F9C166"/>
<path d="M525.439 528.043H539.493V524.157L532.87 521.728L525.439 524.157V528.043Z" fill="#FDB45C"/>
<path d="M515.512 518.402L525.439 524.156H539.493L549.4 518.402L549.396 510.274L539.493 504.518H525.439L515.512 510.274V518.402Z" fill="#FBD9A2"/>
<path d="M517.128 511.596V518.023L526.117 523.232H538.809L547.792 518.016V511.596L538.809 506.39H526.117L517.128 511.596Z" fill="#F9C166"/>
<path d="M517.129 510.641V511.596L526.117 506.39H538.81L547.792 511.596V510.641L538.81 505.463L526.117 505.464L517.129 510.641Z" fill="#FDB45C"/>
<g clip-path="url(#clip5_821_6821)">
<path d="M531.782 514.477L539.021 510.298L537.299 515.886L531.782 514.477Z" fill="#1A1E42"/>
<path d="M531.057 514.895L526.98 517.248L536.579 516.301L531.057 514.895Z" fill="#1A1E42"/>
<path d="M531.782 514.476L539.02 510.297L529.34 511.291L531.782 514.476Z" fill="#272C59"/>
<path d="M531.057 514.895L526.98 517.249L528.62 511.707L531.057 514.895Z" fill="#272C59"/>
</g>
</g>
<defs>
<filter id="filter0_f_821_6821" x="98" y="359.86" width="404.435" height="257.784" filterUnits="userSpaceOnUse" color-interpolation-filters="sRGB">
<feFlood flood-opacity="0" result="BackgroundImageFix"/>
<feBlend mode="normal" in="SourceGraphic" in2="BackgroundImageFix" result="shape"/>
<feGaussianBlur stdDeviation="10" result="effect1_foregroundBlur_821_6821"/>
</filter>
<filter id="filter1_f_821_6821" x="196.686" y="524.497" width="57.3313" height="36.1592" filterUnits="userSpaceOnUse" color-interpolation-filters="sRGB">
<feFlood flood-opacity="0" result="BackgroundImageFix"/>
<feBlend mode="normal" in="SourceGraphic" in2="BackgroundImageFix" result="shape"/>
<feGaussianBlur stdDeviation="2" result="effect1_foregroundBlur_821_6821"/>
</filter>
<filter id="filter2_f_821_6821" x="510.604" y="504.959" width="43.7324" height="28.3965" filterUnits="userSpaceOnUse" color-interpolation-filters="sRGB">
<feFlood flood-opacity="0" result="BackgroundImageFix"/>
<feBlend mode="normal" in="SourceGraphic" in2="BackgroundImageFix" result="shape"/>
<feGaussianBlur stdDeviation="2" result="effect1_foregroundBlur_821_6821"/>
</filter>
<filter id="filter3_f_821_6821" x="542.845" y="573.813" width="63.1553" height="39.4834" filterUnits="userSpaceOnUse" color-interpolation-filters="sRGB">
<feFlood flood-opacity="0" result="BackgroundImageFix"/>
<feBlend mode="normal" in="SourceGraphic" in2="BackgroundImageFix" result="shape"/>
<feGaussianBlur stdDeviation="2" result="effect1_foregroundBlur_821_6821"/>
</filter>
<filter id="filter4_f_821_6821" x="283.015" y="607.68" width="82.1396" height="50.3203" filterUnits="userSpaceOnUse" color-interpolation-filters="sRGB">
<feFlood flood-opacity="0" result="BackgroundImageFix"/>
<feBlend mode="normal" in="SourceGraphic" in2="BackgroundImageFix" result="shape"/>
<feGaussianBlur stdDeviation="2" result="effect1_foregroundBlur_821_6821"/>
</filter>
<clipPath id="clip0_821_6821">
<rect width="35.048" height="72.756" fill="white" transform="translate(219 159.474) rotate(-12.3129)"/>
</clipPath>
<clipPath id="clip1_821_6821">
<rect width="23.3834" height="29" fill="white" transform="translate(351 429)"/>
</clipPath>
<clipPath id="clip2_821_6821">
<rect width="226.351" height="149.677" fill="white" transform="translate(68 326)"/>
</clipPath>
<clipPath id="clip3_821_6821">
<rect width="44.4712" height="69.438" fill="white" transform="translate(344 94)"/>
</clipPath>
<clipPath id="clip4_821_6821">
<rect width="21.8176" height="33.0061" fill="white" transform="matrix(0.866044 0.499967 -0.866044 0.499967 327.585 609)"/>
</clipPath>
<clipPath id="clip5_821_6821">
<rect width="9.19027" height="13.9032" fill="white" transform="matrix(0.866044 0.499967 -0.866044 0.499967 535.041 508)"/>
</clipPath>
</defs>
</svg>
