<svg width="160" height="25" viewBox="0 0 160 25" fill="none" xmlns="http://www.w3.org/2000/svg">
<g clip-path="url(#clip0_866_5175)">
<path d="M41.9124 11.3769H38.8382V21.8052H36.2631V11.3769H34.1808V9.02411H36.2631V7.33603C36.2448 6.8267 36.3308 6.319 36.5158 5.84409C36.7008 5.36918 36.9809 4.93708 37.3388 4.5743C38.0588 3.85574 38.9885 3.49645 40.1278 3.49645C40.7001 3.47576 41.2679 3.60363 41.7761 3.86762C42.1316 4.05219 42.4534 4.29535 42.7281 4.58689L41.862 6.54337C41.6712 6.36007 41.4542 6.20602 41.2183 6.08623C40.9755 5.95184 40.7031 5.87979 40.4256 5.87653C39.8301 5.87653 39.417 6.01633 39.1863 6.29593C38.9475 6.59193 38.8238 6.96436 38.8382 7.34442V9.02201H41.9124V11.3769ZM45.9512 6.34416C45.3724 6.34416 44.9425 6.19527 44.6615 5.8975C44.3736 5.57926 44.2229 5.16029 44.2421 4.73158C44.2412 4.32164 44.3904 3.92554 44.6615 3.61808C44.9411 3.28676 45.371 3.12109 45.9512 3.12109C46.5313 3.12109 46.9605 3.26998 47.2387 3.56775C47.5263 3.88536 47.677 4.30355 47.6581 4.73158C47.6596 5.14224 47.5103 5.53918 47.2387 5.84718C46.9577 6.18129 46.5285 6.34835 45.9512 6.34835V6.34416ZM47.2639 21.8052H44.7118V8.80392H47.2639V21.8052Z" fill="#667085"/>
<path d="M57.9418 8.52944C59.1161 8.52944 60.0248 8.76919 60.6678 9.2487C61.314 9.73135 61.7876 10.4093 62.0183 11.1821C62.2838 12.0575 62.4132 12.9684 62.4021 13.883V21.8075H59.85V14.0487C59.8582 13.4798 59.7746 12.9134 59.6026 12.3711C59.4568 11.9018 59.1624 11.4926 58.7638 11.2052C58.3675 10.9263 57.8139 10.8089 57.1051 10.8592C56.4924 10.8466 55.8868 10.991 55.3457 11.2786C54.8523 11.5405 54.4342 11.9246 54.1315 12.3942C53.834 12.8512 53.6779 13.3859 53.6828 13.9313V21.8075H51.1287V8.80624H53.6828V10.8634C54.1342 10.2012 54.7264 9.64698 55.417 9.24032C56.1743 8.76906 57.0498 8.52254 57.9418 8.52944Z" fill="#667085"/>
<path d="M77.9866 8.80719V21.8085H75.4094V19.8059C74.9276 20.4264 74.3301 20.9476 73.65 21.3409C72.8357 21.8308 71.8992 22.0802 70.9491 22.0601C69.8909 22.069 68.8533 21.7672 67.9651 21.192C67.0482 20.5976 66.3079 19.7675 65.822 18.7888C65.2766 17.6974 65.0039 16.49 65.0272 15.2701C65.003 14.0514 65.2841 12.8461 65.845 11.7639C66.363 10.778 67.144 9.95491 68.1014 9.38595C69.0921 8.80644 70.223 8.51046 71.3706 8.53038C72.2069 8.5124 73.0329 8.71799 73.7632 9.12593C74.3957 9.4791 74.9545 9.95035 75.4094 10.5141V8.80719H77.9866ZM71.5446 19.7115C72.2809 19.7278 73.0054 19.5257 73.6269 19.1306C74.2249 18.7377 74.7042 18.1888 75.013 17.5432C75.353 16.8366 75.5232 16.0604 75.51 15.2764C75.522 14.5046 75.3517 13.7409 75.013 13.0473C74.7015 12.4075 74.2225 11.864 73.6269 11.4746C73.0082 11.0954 72.2972 10.8937 71.5716 10.8915C70.8459 10.8893 70.1337 11.0866 69.5126 11.462C68.9157 11.845 68.4355 12.3847 68.1244 13.0221C67.7854 13.7245 67.6159 14.4966 67.6296 15.2764C67.6169 16.0601 67.7863 16.8361 68.1244 17.5432C68.4347 18.1884 68.9146 18.7371 69.5126 19.1306C70.1176 19.5211 70.8247 19.7232 71.5446 19.7115Z" fill="#667085"/>
<path d="M88.369 8.52945C89.5405 8.52945 90.4492 8.76921 91.0951 9.24872C91.7402 9.73241 92.2135 10.41 92.4456 11.1821C92.711 12.0575 92.8405 12.9684 92.8293 13.8831V21.8076H90.2773V14.0487C90.2844 13.4799 90.2009 12.9136 90.0298 12.3711C89.884 11.9018 89.5896 11.4927 89.191 11.2052C88.7947 10.9263 88.2411 10.8089 87.5302 10.8592C86.9176 10.8468 86.312 10.9912 85.7708 11.2786C85.2782 11.5417 84.8604 11.9255 84.5567 12.3942C84.2618 12.8515 84.1073 13.3851 84.1121 13.9292V21.8076H81.5559V8.80626H84.1079V10.8634C84.5589 10.2008 85.1511 9.64644 85.8421 9.24033C86.6 8.7687 87.4764 8.52216 88.369 8.52945Z" fill="#667085"/>
<path d="M105.391 19.6042V21.806H95.7445V19.6797L102.245 11.0065H95.7445V8.80469H105.233V10.887L98.7264 19.6042H105.391Z" fill="#667085"/>
<path d="M115.351 11.3772H112.279V21.8055H109.702V11.3772H107.621V9.02435H109.702V7.33628C109.683 6.82675 109.769 6.31885 109.955 5.84389C110.14 5.36892 110.421 4.93693 110.78 4.57455C111.499 3.85598 112.428 3.4967 113.566 3.4967C114.139 3.47601 114.707 3.60388 115.215 3.86787C115.573 4.05198 115.897 4.29595 116.173 4.58923L115.305 6.54572C115.114 6.36195 114.897 6.20785 114.661 6.08857C114.419 5.95019 114.145 5.87451 113.866 5.86839C113.272 5.86839 112.859 6.00819 112.627 6.28779C112.39 6.58444 112.267 6.95659 112.281 7.33628V9.01387H115.353L115.351 11.3772ZM118.027 21.8055V3.47363H120.577V21.8055H118.027Z" fill="#667085"/>
<path d="M132.968 16.6306V8.80469H135.52V21.806H132.968V19.7279C132.538 20.3881 131.964 20.9429 131.29 21.351C130.498 21.8383 129.58 22.0839 128.65 22.0576C127.295 22.0576 126.197 21.5949 125.356 20.6694C124.514 19.744 124.095 18.4641 124.097 16.8299V8.80469H126.658V16.1441C126.651 16.7687 126.756 17.3893 126.968 17.9769C127.157 18.5153 127.501 18.9854 127.958 19.3274C128.469 19.6832 129.083 19.8615 129.705 19.8348C130.552 19.8537 131.375 19.5544 132.011 18.996C132.65 18.4271 132.969 17.6386 132.968 16.6306Z" fill="#667085"/>
<path d="M146.596 12.2204C146.135 11.7589 145.603 11.3738 145.021 11.0796C144.523 10.8068 143.968 10.6546 143.4 10.6351C143.053 10.6342 142.707 10.6758 142.37 10.7588C142.05 10.8315 141.755 10.9895 141.517 11.216C141.394 11.3463 141.3 11.5006 141.24 11.6692C141.18 11.8377 141.156 12.0168 141.169 12.1952C141.163 12.4612 141.236 12.7229 141.38 12.947C141.523 13.171 141.73 13.3473 141.974 13.4534C142.6 13.7375 143.252 13.9615 143.92 14.1224C144.595 14.3038 145.257 14.5315 145.902 14.8039C146.525 15.0612 147.074 15.4698 147.499 15.9929C147.919 16.5129 148.129 17.2441 148.129 18.1863C148.148 18.9375 147.907 19.6724 147.447 20.2665C146.985 20.8526 146.379 21.3091 145.688 21.5918C144.976 21.8982 144.209 22.0566 143.433 22.0574C142.481 22.0553 141.538 21.8828 140.647 21.5478C139.716 21.1999 138.904 20.5948 138.304 19.8031L140.041 18.3163C140.46 18.8104 140.971 19.2185 141.546 19.5179C142.201 19.825 142.92 19.973 143.643 19.9499C143.964 19.949 144.282 19.8951 144.585 19.7905C144.892 19.6865 145.169 19.5078 145.39 19.2705C145.623 18.9993 145.743 18.6484 145.723 18.2912C145.733 18.1197 145.706 17.9482 145.644 17.788C145.582 17.6278 145.487 17.4827 145.365 17.3622C145.088 17.1167 144.763 16.931 144.411 16.817C143.98 16.6665 143.542 16.5384 143.098 16.4332C142.384 16.2337 141.684 15.9893 141.001 15.7014C140.344 15.4304 139.76 15.0071 139.298 14.4663C138.84 13.9267 138.61 13.1948 138.61 12.2707C138.593 11.5479 138.827 10.8414 139.273 10.2723C139.73 9.7062 140.322 9.26358 140.995 8.98476C141.715 8.67661 142.491 8.52028 143.274 8.52552C144.14 8.54245 144.995 8.71065 145.803 9.0225C146.686 9.33415 147.466 9.8826 148.057 10.6078L146.596 12.2204Z" fill="#667085"/>
<path d="M158.463 12.2222C158.003 11.7601 157.472 11.375 156.89 11.0815C156.391 10.8088 155.835 10.6566 155.267 10.6369C154.921 10.6361 154.575 10.6777 154.239 10.7606C153.918 10.8328 153.622 10.9908 153.384 11.2178C153.262 11.3485 153.168 11.5029 153.109 11.6714C153.049 11.8399 153.025 12.0188 153.038 12.1971C153.031 12.4631 153.105 12.7251 153.248 12.9492C153.391 13.1734 153.599 13.3496 153.843 13.4552C154.468 13.7391 155.119 13.963 155.787 14.1242C156.463 14.3059 157.126 14.5336 157.771 14.8057C158.395 15.0644 158.945 15.4753 159.371 16.001C159.79 16.521 160 17.2522 160 18.1944C160.019 18.9456 159.778 19.6805 159.318 20.2746C158.855 20.8602 158.249 21.3166 157.559 21.5999C156.842 21.9056 156.071 22.0619 155.292 22.0592C154.34 22.0571 153.396 21.8846 152.505 21.5496C151.574 21.2024 150.762 20.5972 150.163 19.8049L151.897 18.3182C152.323 18.8135 152.84 19.2216 153.421 19.5197C154.077 19.8272 154.795 19.9753 155.518 19.9517C155.839 19.9511 156.157 19.8973 156.46 19.7923C156.768 19.6894 157.045 19.5105 157.265 19.2723C157.5 19.0019 157.62 18.6506 157.601 18.293C157.611 18.1214 157.583 17.9496 157.521 17.7894C157.459 17.6291 157.363 17.4841 157.24 17.364C156.964 17.1185 156.64 16.9328 156.288 16.8188C155.855 16.6679 155.414 16.5398 154.967 16.4351C154.253 16.2353 153.553 15.9909 152.87 15.7032C152.212 15.4328 151.628 15.0094 151.167 14.4681C150.713 13.9313 150.486 13.2008 150.486 12.2767C150.465 11.5532 150.697 10.8452 151.142 10.2741C151.601 9.70702 152.195 9.26488 152.87 8.98866C153.59 8.68052 154.366 8.52418 155.149 8.52942C156.011 8.54761 156.862 8.71578 157.666 9.02641C158.549 9.33748 159.329 9.88603 159.92 10.6117L158.463 12.2222Z" fill="#667085"/>
<path d="M22.1378 9.27721C21.2382 8.30631 20.9111 6.20513 20.9111 6.20513L20.649 4.99307C20.649 4.99307 20.3344 3.8565 20.1017 3.52518C19.9952 3.23628 19.9716 2.9234 20.0335 2.6218C20.0954 2.3202 20.2403 2.04188 20.4519 1.81823C20.4519 1.81823 21.081 1.0046 20.1646 0.350344C20.1646 0.350344 19.1601 -0.48845 18.4346 0.474066C18.4346 0.474066 17.7572 1.71338 16.7863 1.52256C16.5221 1.45126 16.3669 1.4219 16.3669 1.4219C16.3669 1.4219 14.1819 1.00251 12.7727 1.00251C11.3635 1.00251 9.17847 1.4219 9.17847 1.4219C9.17847 1.4219 9.01281 1.45126 8.75907 1.52256C7.78607 1.70919 7.10875 0.474066 7.10875 0.474066C6.38529 -0.490547 5.37873 0.350344 5.37873 0.350344C4.45606 1.01089 5.09354 1.81823 5.09354 1.81823C5.30514 2.04188 5.45005 2.3202 5.51192 2.6218C5.5738 2.9234 5.55018 3.23628 5.44374 3.52518C5.20888 3.86279 4.89433 4.99307 4.89433 4.99307L4.61333 6.20513C4.61333 6.20513 4.28411 8.30211 3.3845 9.27721C3.3845 9.27721 -2.67998 14.7294 1.42801 20.3053C1.42801 20.3053 4.12474 23.5116 8.57664 21.0308C8.57664 21.0308 10.6506 19.8817 12.7706 19.8754C14.8907 19.8691 16.9646 21.0308 16.9646 21.0308C21.4165 23.5116 24.1132 20.3053 24.1132 20.3053C28.2044 14.7273 22.1378 9.27721 22.1378 9.27721ZM8.75488 13.8906C8.33548 14.4589 7.28699 14.398 6.41674 13.7522C5.54649 13.1063 5.18581 12.1228 5.6094 11.5524C6.03299 10.9821 7.07729 11.045 7.94754 11.6908C8.81779 12.3367 9.17847 13.3265 8.75488 13.8969V13.8906ZM9.46786 7.78835C8.69826 7.78835 8.07755 7.07328 8.07546 6.54065H9.2267C9.35881 6.54065 9.39865 6.31417 9.31687 6.21142L8.59761 5.2531C8.8414 5.04191 9.14976 4.9199 9.47205 4.90709C9.84544 4.92133 10.1988 5.07967 10.4579 5.34887C10.7171 5.61807 10.8618 5.97721 10.8618 6.35087C10.8618 6.72453 10.7171 7.08366 10.4579 7.35287C10.1988 7.62207 9.84544 7.78041 9.47205 7.79464L9.46786 7.78835ZM14.6642 6.54065H15.8154C15.9496 6.54065 15.9895 6.31417 15.9056 6.21142L15.1821 5.24681C15.4259 5.03562 15.7343 4.91361 16.0566 4.9008C16.2382 4.89831 16.4185 4.93185 16.587 4.9995C16.7556 5.06714 16.9091 5.16754 17.0385 5.29489C17.168 5.42224 17.271 5.574 17.3414 5.7414C17.4119 5.9088 17.4484 6.08851 17.449 6.27013C17.449 7.04182 16.8199 7.79884 16.0566 7.79884C15.2933 7.79884 14.6663 7.07957 14.6642 6.54694V6.54065ZM19.1098 13.6033C18.2437 14.2576 17.1952 14.3163 16.7759 13.748C16.3565 13.1797 16.715 12.192 17.5832 11.5482C18.4513 10.9045 19.5019 10.8416 19.9213 11.4098C20.3407 11.9781 19.98 12.9658 19.1098 13.6096V13.6033Z" fill="#667085"/>
<path d="M12.7682 21.3857C9.98345 21.3857 8.74832 22.9249 8.74832 22.9249C8.74832 22.9249 7.49013 24.2796 12.7682 24.2796C18.0464 24.2796 16.7861 22.9249 16.7861 22.9249C16.7861 22.9249 15.5509 21.3857 12.7682 21.3857Z" fill="#667085"/>
</g>
<defs>
<clipPath id="clip0_866_5175">
<rect width="160" height="24.2789" fill="white"/>
</clipPath>
</defs>
</svg>
