<svg width="40" height="36" viewBox="0 0 40 36" fill="none" xmlns="http://www.w3.org/2000/svg">
<g filter="url(#filter0_d_60_538)">
<path d="M30.9411 0H16.1756V19.7517H35.9921V5.13898C36.0001 2.36441 33.7248 0 30.9411 0ZM11.6411 0H9.16401C6.38035 0 4.00012 2.25986 4.00012 5.14702V7.61598H11.6411V0ZM4.00012 12.2403H11.6411V19.8562H4.00012V12.2403ZM28.3592 31.992H30.8362C33.6199 31.992 36.0001 29.7321 36.0001 26.8449V24.384H28.3592V31.992ZM16.1756 24.384H23.8166V32H16.1756V24.384ZM4.00012 24.384V26.853C4.00012 29.6275 6.26739 32 9.16401 32H11.6411V24.384H4.00012Z" fill="#98A2B3"/>
</g>
<defs>
<filter id="filter0_d_60_538" x="0.00012207" y="0" width="40" height="40" filterUnits="userSpaceOnUse" color-interpolation-filters="sRGB">
<feFlood flood-opacity="0" result="BackgroundImageFix"/>
<feColorMatrix in="SourceAlpha" type="matrix" values="0 0 0 0 0 0 0 0 0 0 0 0 0 0 0 0 0 0 127 0" result="hardAlpha"/>
<feOffset dy="4"/>
<feGaussianBlur stdDeviation="2"/>
<feComposite in2="hardAlpha" operator="out"/>
<feColorMatrix type="matrix" values="0 0 0 0 0 0 0 0 0 0 0 0 0 0 0 0 0 0 0.25 0"/>
<feBlend mode="normal" in2="BackgroundImageFix" result="effect1_dropShadow_60_538"/>
<feBlend mode="normal" in="SourceGraphic" in2="effect1_dropShadow_60_538" result="shape"/>
</filter>
</defs>
</svg>
