<svg width="105" height="29" viewBox="0 0 105 29" fill="none" xmlns="http://www.w3.org/2000/svg">
<path d="M17.5 12.4969H11.0083L9.00313 6L6.99171 12.4969L0.5 12.4903L5.75728 16.5097L3.74585 23L9.00313 18.9872L14.2541 23L12.249 16.5097L17.5 12.4969Z" fill="white"/>
<path d="M12.6999 17.9791L12.2488 16.5098L9.00293 18.9873L12.6999 17.9791Z" fill="#D0D5DD"/>
<path d="M23.712 20.5V9.862H19.95V7.9H29.634V9.862H25.872V20.5H23.712ZM30.1304 20.5V11.608H32.1644V12.634H32.4704C32.6024 12.262 32.8244 11.992 33.1364 11.824C33.4484 11.656 33.8204 11.572 34.2524 11.572H35.3324V13.408H34.2164C33.6164 13.408 33.1304 13.57 32.7584 13.894C32.3864 14.206 32.2004 14.692 32.2004 15.352V20.5H30.1304ZM40.5637 20.644C39.8797 20.644 39.2737 20.494 38.7457 20.194C38.2177 19.882 37.8097 19.45 37.5217 18.898C37.2337 18.334 37.0897 17.68 37.0897 16.936V11.608H39.1417V16.774C39.1417 17.494 39.3157 18.028 39.6637 18.376C40.0237 18.724 40.5277 18.898 41.1757 18.898C41.9077 18.898 42.4837 18.658 42.9037 18.178C43.3357 17.698 43.5517 17.008 43.5517 16.108V11.608H45.6037V20.5H43.5877V19.258H43.2817C43.1257 19.582 42.8377 19.894 42.4177 20.194C42.0097 20.494 41.3917 20.644 40.5637 20.644ZM51.9079 20.752C50.7559 20.752 49.8079 20.5 49.0639 19.996C48.3199 19.492 47.8699 18.754 47.7139 17.782L49.6219 17.296C49.7059 17.752 49.8559 18.112 50.0719 18.376C50.2879 18.64 50.5519 18.826 50.8639 18.934C51.1879 19.042 51.5359 19.096 51.9079 19.096C52.4719 19.096 52.8919 18.994 53.1679 18.79C53.4559 18.586 53.5999 18.328 53.5999 18.016C53.5999 17.692 53.4619 17.452 53.1859 17.296C52.9219 17.14 52.5139 17.008 51.9619 16.9L51.4039 16.81C50.7919 16.69 50.2339 16.528 49.7299 16.324C49.2259 16.108 48.8179 15.82 48.5059 15.46C48.2059 15.088 48.0559 14.62 48.0559 14.056C48.0559 13.192 48.3739 12.526 49.0099 12.058C49.6579 11.59 50.5039 11.356 51.5479 11.356C52.5439 11.356 53.3659 11.578 54.0139 12.022C54.6619 12.466 55.0819 13.06 55.2739 13.804L53.3659 14.38C53.2699 13.876 53.0599 13.522 52.7359 13.318C52.4119 13.102 52.0159 12.994 51.5479 12.994C51.0679 12.994 50.6959 13.078 50.4319 13.246C50.1799 13.414 50.0539 13.654 50.0539 13.966C50.0539 14.278 50.1859 14.512 50.4499 14.668C50.7139 14.824 51.0679 14.938 51.5119 15.01L52.0699 15.118C52.7299 15.238 53.3239 15.394 53.8519 15.586C54.3919 15.778 54.8179 16.054 55.1299 16.414C55.4419 16.774 55.5979 17.26 55.5979 17.872C55.5979 18.796 55.2619 19.51 54.5899 20.014C53.9299 20.506 53.0359 20.752 51.9079 20.752ZM60.9011 20.5C60.3251 20.5 59.8631 20.332 59.5151 19.996C59.1791 19.648 59.0111 19.18 59.0111 18.592V13.318H56.6891V11.608H59.0111V8.746H61.0811V11.608H63.6371V13.318H61.0811V18.25C61.0811 18.61 61.2491 18.79 61.5851 18.79H63.3671V20.5H60.9011ZM65.7437 24.1V11.608H67.7777V12.778H68.0837C68.2877 12.406 68.6117 12.076 69.0557 11.788C69.5117 11.5 70.1597 11.356 70.9997 11.356C71.7197 11.356 72.3857 11.536 72.9977 11.896C73.6217 12.244 74.1197 12.76 74.4917 13.444C74.8637 14.128 75.0497 14.95 75.0497 15.91V16.198C75.0497 17.158 74.8637 17.98 74.4917 18.664C74.1197 19.348 73.6277 19.87 73.0157 20.23C72.4037 20.578 71.7317 20.752 70.9997 20.752C70.4357 20.752 69.9617 20.686 69.5777 20.554C69.2057 20.422 68.8997 20.248 68.6597 20.032C68.4317 19.816 68.2517 19.6 68.1197 19.384H67.8137V24.1H65.7437ZM70.3877 18.952C71.1437 18.952 71.7617 18.712 72.2417 18.232C72.7337 17.74 72.9797 17.044 72.9797 16.144V15.964C72.9797 15.052 72.7337 14.356 72.2417 13.876C71.7497 13.396 71.1317 13.156 70.3877 13.156C69.6437 13.156 69.0197 13.396 68.5157 13.876C68.0237 14.356 67.7777 15.052 67.7777 15.964V16.144C67.7777 17.044 68.0237 17.74 68.5157 18.232C69.0197 18.712 69.6437 18.952 70.3877 18.952ZM77.2398 20.5V11.608H79.3098V20.5H77.2398ZM78.2658 10.474C77.8938 10.474 77.5698 10.354 77.2938 10.114C77.0298 9.862 76.8978 9.532 76.8978 9.124C76.8978 8.716 77.0298 8.392 77.2938 8.152C77.5698 7.9 77.8938 7.774 78.2658 7.774C78.6618 7.774 78.9858 7.9 79.2378 8.152C79.5018 8.392 79.6338 8.716 79.6338 9.124C79.6338 9.532 79.5018 9.862 79.2378 10.114C78.9858 10.354 78.6618 10.474 78.2658 10.474ZM81.9331 20.5V7.9H84.0031V20.5H81.9331ZM90.8385 20.752C89.9505 20.752 89.1525 20.572 88.4445 20.212C87.7485 19.84 87.1965 19.318 86.7885 18.646C86.3925 17.962 86.1945 17.146 86.1945 16.198V15.91C86.1945 14.962 86.3925 14.146 86.7885 13.462C87.1965 12.778 87.7485 12.256 88.4445 11.896C89.1525 11.536 89.9505 11.356 90.8385 11.356C91.7265 11.356 92.5185 11.536 93.2145 11.896C93.9105 12.256 94.4565 12.778 94.8525 13.462C95.2605 14.146 95.4645 14.962 95.4645 15.91V16.198C95.4645 17.146 95.2605 17.962 94.8525 18.646C94.4565 19.318 93.9105 19.84 93.2145 20.212C92.5185 20.572 91.7265 20.752 90.8385 20.752ZM90.8385 18.916C91.5945 18.916 92.2125 18.676 92.6925 18.196C93.1725 17.704 93.4125 17.02 93.4125 16.144V15.964C93.4125 15.088 93.1725 14.41 92.6925 13.93C92.2125 13.438 91.5945 13.192 90.8385 13.192C90.0825 13.192 89.4645 13.438 88.9845 13.93C88.5045 14.41 88.2645 15.088 88.2645 15.964V16.144C88.2645 17.02 88.5045 17.704 88.9845 18.196C89.4645 18.676 90.0825 18.916 90.8385 18.916ZM100.751 20.5C100.175 20.5 99.7127 20.332 99.3647 19.996C99.0287 19.648 98.8607 19.18 98.8607 18.592V13.318H96.5387V11.608H98.8607V8.746H100.931V11.608H103.487V13.318H100.931V18.25C100.931 18.61 101.099 18.79 101.435 18.79H103.217V20.5H100.751Z" fill="white"/>
</svg>
